<svg width="372" height="194" viewBox="0 0 372 194" fill="none" xmlns="http://www.w3.org/2000/svg">
<g clip-path="url(#clip0_1288_8294)">
<rect width="372" height="194" rx="11" fill="#F7F6F6"/>
<rect x="26" y="-38" width="8" height="184" fill="#221D1D" fill-opacity="0.6"/>
<rect x="52" y="-38" width="8" height="184" fill="#221D1D" fill-opacity="0.6"/>
<rect x="78" y="-38" width="8" height="184" fill="#221D1D" fill-opacity="0.6"/>
<rect x="104" y="-38" width="8" height="184" fill="#221D1D" fill-opacity="0.6"/>
<rect x="130" y="-38" width="8" height="184" fill="#221D1D" fill-opacity="0.6"/>
<rect x="156" y="-38" width="8" height="184" fill="#221D1D" fill-opacity="0.6"/>
<rect x="182" y="-38" width="8" height="184" fill="#221D1D" fill-opacity="0.6"/>
<rect x="208" y="-38" width="8" height="184" fill="#221D1D" fill-opacity="0.6"/>
<rect x="234" y="-38" width="8" height="184" fill="#221D1D" fill-opacity="0.6"/>
<rect x="260" y="-38" width="8" height="184" fill="#221D1D" fill-opacity="0.6"/>
<rect x="286" y="-38" width="8" height="184" fill="#221D1D" fill-opacity="0.6"/>
<rect x="312" y="-38" width="8" height="184" fill="#221D1D" fill-opacity="0.6"/>
<rect x="338" y="-38" width="8" height="184" fill="#221D1D" fill-opacity="0.6"/>
<rect x="13" y="146" width="8" height="184" fill="#0461FF"/>
<rect x="15" y="31" width="4" height="115" fill="#EBEBEB"/>
<rect x="39" y="146" width="8" height="184" fill="#0461FF"/>
<rect x="41" y="31" width="4" height="115" fill="#EBEBEB"/>
<rect x="65" y="146" width="8" height="184" fill="#0461FF"/>
<rect x="67" y="31" width="4" height="115" fill="#EBEBEB"/>
<rect x="91" y="146" width="8" height="184" fill="#0461FF"/>
<rect x="93" y="31" width="4" height="115" fill="#EBEBEB"/>
<rect x="117" y="146" width="8" height="184" fill="#0461FF"/>
<rect x="119" y="31" width="4" height="115" fill="#EBEBEB"/>
<rect x="143" y="146" width="8" height="184" fill="#0461FF"/>
<rect x="145" y="31" width="4" height="115" fill="#EBEBEB"/>
<rect x="169" y="146" width="8" height="184" fill="#0461FF"/>
<rect x="171" y="31" width="4" height="115" fill="#EBEBEB"/>
<rect x="195" y="146" width="8" height="184" fill="#0461FF"/>
<rect x="197" y="31" width="4" height="115" fill="#EBEBEB"/>
<rect x="221" y="146" width="8" height="184" fill="#0461FF"/>
<rect x="223" y="31" width="4" height="115" fill="#EBEBEB"/>
<rect x="247" y="146" width="8" height="184" fill="#0461FF"/>
<rect x="249" y="31" width="4" height="115" fill="#EBEBEB"/>
<rect x="273" y="146" width="8" height="184" fill="#0461FF"/>
<rect x="275" y="31" width="4" height="115" fill="#EBEBEB"/>
<rect x="299" y="146" width="8" height="184" fill="#0461FF"/>
<rect x="301" y="31" width="4" height="115" fill="#EBEBEB"/>
<rect x="325" y="146" width="8" height="184" fill="#0461FF"/>
<rect x="327" y="31" width="4" height="115" fill="#EBEBEB"/>
<rect x="351" y="146" width="8" height="184" fill="#0461FF"/>
<rect x="353" y="31" width="4" height="115" fill="#EBEBEB"/>
</g>
<defs>
<clipPath id="clip0_1288_8294">
<rect width="372" height="194" rx="11" fill="white"/>
</clipPath>
</defs>
</svg>
