<svg width="44" height="44" viewBox="0 0 44 44" fill="none" xmlns="http://www.w3.org/2000/svg">
<rect width="44" height="44" rx="22" fill="#F4F4F4"/>
<path d="M22.8318 13.473C22.4711 13.0915 22.1901 13 22.0014 13C21.8127 13 21.5317 13.0915 21.171 13.473C20.8082 13.8565 20.4355 14.4652 20.1015 15.3003C19.5201 16.7537 19.1153 18.7435 19.022 21H24.9808C24.8875 18.7435 24.4827 16.7537 23.9014 15.3003C23.5673 14.4652 23.1946 13.8565 22.8318 13.473Z" fill="#5C5C5C"/>
<path d="M24.9808 23H19.022C19.1153 25.2565 19.5201 27.2463 20.1015 28.6997C20.4355 29.5348 20.8082 30.1435 21.171 30.527C21.5317 30.9085 21.8127 31 22.0014 31C22.1901 31 22.4711 30.9085 22.8318 30.527C23.1946 30.1435 23.5673 29.5348 23.9014 28.6997C24.4827 27.2463 24.8875 25.2565 24.9808 23Z" fill="#5C5C5C"/>
<path d="M17.0204 20.9973C17.1146 18.5301 17.5548 16.2791 18.2445 14.5548C18.5928 13.6842 19.0203 12.9084 19.5313 12.3047C15.5159 13.3249 12.47 16.7747 12.0508 20.9973H17.0204Z" fill="#5C5C5C"/>
<path d="M12.0508 23H17.0204C17.1146 25.4672 17.5548 27.7182 18.2445 29.4424C18.5928 30.3131 19.0203 31.0889 19.5313 31.6926C15.5159 30.6724 12.47 27.2225 12.0508 23Z" fill="#5C5C5C"/>
<path d="M26.9823 23H31.9519C31.5327 27.2225 28.4868 30.6724 24.4714 31.6926C24.9824 31.0889 25.41 30.3131 25.7582 29.4424C26.4479 27.7182 26.8881 25.4672 26.9823 23Z" fill="#5C5C5C"/>
<path d="M31.9519 20.9973C31.5327 16.7747 28.4868 13.3249 24.4714 12.3047C24.9824 12.9084 25.41 13.6842 25.7582 14.5548C26.4479 16.2791 26.8881 18.5301 26.9823 20.9973H31.9519Z" fill="#5C5C5C"/>
</svg>
