<svg width="233" height="114" viewBox="0 0 233 114" fill="none" xmlns="http://www.w3.org/2000/svg">
<g clip-path="url(#clip0_504_4330)">
<g opacity="0.2">
<path d="M226.357 113.646C228.964 113.646 231.078 111.532 231.078 108.925C231.078 106.317 228.964 104.204 226.357 104.204C223.749 104.204 221.635 106.317 221.635 108.925C221.635 111.532 223.749 113.646 226.357 113.646Z" fill="white"/>
<path d="M228.755 68.6831C230.599 66.8393 230.599 63.85 228.755 62.0062C226.911 60.1625 223.922 60.1625 222.078 62.0062C220.234 63.85 220.234 66.8393 222.078 68.6831C223.922 70.5268 226.911 70.5268 228.755 68.6831Z" fill="white"/>
<path d="M230.68 22.501C231.28 19.9631 229.708 17.4201 227.171 16.8209C224.633 16.2218 222.09 17.7931 221.491 20.3308C220.892 22.8688 222.463 25.4116 225 26.0107C227.538 26.6098 230.081 25.0378 230.68 22.501Z" fill="white"/>
<path d="M171.676 113.646C174.284 113.646 176.397 111.532 176.397 108.925C176.397 106.317 174.284 104.204 171.676 104.204C169.069 104.204 166.955 106.317 166.955 108.925C166.955 111.532 169.069 113.646 171.676 113.646Z" fill="white"/>
<path d="M174.076 68.6831C175.919 66.8393 175.919 63.85 174.076 62.0062C172.232 60.1625 169.242 60.1625 167.398 62.0062C165.555 63.85 165.555 66.8393 167.398 68.6831C169.242 70.5268 172.232 70.5268 174.076 68.6831Z" fill="white"/>
<path d="M175.999 22.501C176.598 19.9631 175.027 17.4201 172.489 16.8209C169.951 16.2218 167.408 17.7931 166.809 20.3308C166.21 22.8688 167.781 25.4116 170.319 26.0107C172.857 26.6098 175.4 25.0378 175.999 22.501Z" fill="white"/>
<path d="M116.997 113.646C119.604 113.646 121.718 111.532 121.718 108.925C121.718 106.317 119.604 104.204 116.997 104.204C114.389 104.204 112.275 106.317 112.275 108.925C112.275 111.532 114.389 113.646 116.997 113.646Z" fill="white"/>
<path d="M119.395 68.6831C121.239 66.8393 121.239 63.85 119.395 62.0062C117.551 60.1625 114.563 60.1625 112.719 62.0062C110.875 63.85 110.875 66.8393 112.719 68.6831C114.563 70.5268 117.551 70.5268 119.395 68.6831Z" fill="white"/>
<path d="M121.319 22.501C121.919 19.9631 120.347 17.4201 117.809 16.8209C115.271 16.2218 112.728 17.7931 112.129 20.3308C111.53 22.8688 113.102 25.4116 115.639 26.0107C118.177 26.6098 120.72 25.0378 121.319 22.501Z" fill="white"/>
<path d="M62.317 113.646C64.9245 113.646 67.0383 111.532 67.0383 108.925C67.0383 106.317 64.9245 104.204 62.317 104.204C59.7095 104.204 57.5957 106.317 57.5957 108.925C57.5957 111.532 59.7095 113.646 62.317 113.646Z" fill="white"/>
<path d="M64.716 68.6831C66.5598 66.8393 66.5598 63.85 64.716 62.0062C62.8722 60.1625 59.8828 60.1625 58.0391 62.0062C56.1953 63.85 56.1953 66.8393 58.0391 68.6831C59.8828 70.5268 62.8722 70.5268 64.716 68.6831Z" fill="white"/>
<path d="M66.6396 22.501C67.2389 19.9631 65.6673 17.4201 63.1297 16.8209C60.5919 16.2218 58.0489 17.7931 57.4497 20.3308C56.8504 22.8688 58.4219 25.4116 60.9596 26.0107C63.4974 26.6098 66.0403 25.0378 66.6396 22.501Z" fill="white"/>
<path d="M7.63733 112.466C10.2448 112.466 12.3587 110.352 12.3587 107.745C12.3587 105.137 10.2448 103.024 7.63733 103.024C5.02982 103.024 2.91602 105.137 2.91602 107.745C2.91602 110.352 5.02982 112.466 7.63733 112.466Z" fill="white"/>
<path d="M10.0364 67.5021C11.8802 65.6583 11.8802 62.67 10.0364 60.8263C8.19256 58.9825 5.20319 58.9825 3.3594 60.8263C1.51562 62.67 1.51562 65.6583 3.3594 67.5021C5.20319 69.3458 8.19256 69.3458 10.0364 67.5021Z" fill="white"/>
<path d="M11.9599 21.32C12.5591 18.7826 10.9877 16.2397 8.44996 15.6405C5.91223 15.0413 3.36924 16.6127 2.77 19.1503C2.17078 21.6878 3.74224 24.2306 6.27996 24.8297C8.81769 25.4288 11.3607 23.8578 11.9599 21.32Z" fill="white"/>
</g>
</g>
<defs>
<clipPath id="clip0_504_4330">
<rect width="232.36" height="193.97" fill="white" transform="translate(0.00390625 -80)"/>
</clipPath>
</defs>
</svg>
