<svg width="436" height="436" viewBox="0 0 436 436" fill="none" xmlns="http://www.w3.org/2000/svg">
<g opacity="0.5">
<path d="M435 136.762C435 131.577 435 126.393 434.974 121.213C434.947 116.846 434.895 112.479 434.778 108.117C434.52 98.6075 433.961 89.0187 432.273 79.6145C430.559 70.068 427.758 61.1807 423.338 52.5044C419.003 43.9863 413.333 36.1855 406.577 29.4291C399.815 22.6674 392.019 17.0027 383.496 12.6619C374.825 8.24729 365.943 5.44661 356.402 3.73244C346.997 2.03938 337.398 1.4803 327.888 1.22185C323.521 1.10582 319.159 1.05307 314.792 1.0267C309.608 0.995055 304.423 1.00033 299.243 1.00033H136.762C131.577 1.00033 126.392 1.00033 121.213 1.0267C116.846 1.05307 112.479 1.10582 108.117 1.22185C98.6071 1.4803 89.0078 2.03938 79.6037 3.73244C70.0624 5.44661 61.1803 8.24729 52.5093 12.6619C43.986 16.9974 36.1905 22.6674 29.4288 29.4291C22.667 36.1908 17.0024 43.9863 12.6616 52.5044C8.24696 61.1807 5.44628 70.0627 3.73211 79.6145C2.04432 89.0187 1.47997 98.6075 1.2268 108.117C1.11076 112.484 1.05802 116.846 1.03165 121.213C1 126.398 1 131.583 1 136.762V299.239C1 304.423 1 309.608 1.03165 314.787C1.05802 319.155 1.11076 323.516 1.2268 327.884C1.48524 337.393 2.04432 346.982 3.73211 356.386C5.44628 365.933 8.24696 374.82 12.6616 383.496C16.9971 392.014 22.667 399.815 29.4288 406.572C36.1905 413.333 43.986 418.998 52.5093 423.339C61.1803 427.753 70.0624 430.554 79.6037 432.268C89.0078 433.961 98.6019 434.52 108.117 434.779C112.484 434.895 116.846 434.948 121.213 434.974C126.398 435.006 131.582 435 136.762 435H299.238C304.423 435 309.608 435 314.787 434.974C319.154 434.948 323.516 434.895 327.883 434.779C337.393 434.52 346.987 433.961 356.396 432.268C365.938 430.554 374.82 427.753 383.491 423.339C392.014 419.003 399.81 413.333 406.571 406.572C413.333 399.81 418.998 392.014 423.333 383.496C427.748 374.82 430.548 365.938 432.268 356.386C433.956 346.982 434.52 337.393 434.773 327.884C434.889 323.516 434.942 319.155 434.968 314.787C435 309.603 434.995 304.418 434.995 299.239V136.762H435Z" stroke="white" stroke-opacity="0.34" stroke-width="1.2" stroke-miterlimit="10"/>
<path d="M136.625 1.00049V435" stroke="white" stroke-opacity="0.34" stroke-width="1.2" stroke-miterlimit="10"/>
<path d="M298.927 1.00049V435" stroke="white" stroke-opacity="0.34" stroke-width="1.2" stroke-miterlimit="10"/>
<path d="M435 136.625H1" stroke="white" stroke-opacity="0.34" stroke-width="1.2" stroke-miterlimit="10"/>
<path d="M435 298.922H1" stroke="white" stroke-opacity="0.34" stroke-width="1.2" stroke-miterlimit="10"/>
<path d="M435 217.998H1" stroke="white" stroke-opacity="0.34" stroke-width="1.2" stroke-miterlimit="10"/>
<path d="M217.549 435V1.00049" stroke="white" stroke-opacity="0.34" stroke-width="1.2" stroke-miterlimit="10"/>
<path d="M406.524 435V1.00049" stroke="white" stroke-opacity="0.34" stroke-width="1.2" stroke-miterlimit="10"/>
<path d="M29.028 435V1.00049" stroke="white" stroke-opacity="0.34" stroke-width="1.2" stroke-miterlimit="10"/>
<path d="M1 406.519H435" stroke="white" stroke-opacity="0.34" stroke-width="1.2" stroke-miterlimit="10"/>
<path d="M1 29.0283H435" stroke="white" stroke-opacity="0.34" stroke-width="1.2" stroke-miterlimit="10"/>
<path d="M218.039 299.323C262.931 299.323 299.322 262.931 299.322 218.04C299.322 173.148 262.931 136.757 218.039 136.757C173.148 136.757 136.756 173.148 136.756 218.04C136.756 262.931 173.148 299.323 218.039 299.323Z" stroke="white" stroke-opacity="0.34" stroke-width="1.2" stroke-miterlimit="10"/>
<path d="M1 1.00024L435 435" stroke="white" stroke-opacity="0.34" stroke-width="1.2" stroke-miterlimit="10"/>
<path d="M1 435L435 1.00024" stroke="white" stroke-opacity="0.34" stroke-width="1.2" stroke-miterlimit="10"/>
<path d="M332.621 227.518C337.857 164.235 290.801 108.689 227.517 103.453C164.234 98.2168 108.689 145.273 103.453 208.556C98.2164 271.839 145.273 327.385 208.556 332.621C271.839 337.857 327.384 290.801 332.621 227.518Z" stroke="white" stroke-opacity="0.34" stroke-width="1.2" stroke-miterlimit="10"/>
<path d="M218.039 406.561C322.157 406.561 406.561 322.157 406.561 218.04C406.561 113.923 322.157 29.5188 218.039 29.5188C113.922 29.5188 29.5183 113.923 29.5183 218.04C29.5183 322.157 113.922 406.561 218.039 406.561Z" stroke="white" stroke-opacity="0.34" stroke-width="1.2" stroke-miterlimit="10"/>
</g>
<path d="M186.882 110.958V325.038C186.882 349.654 166.928 369.291 142.31 369.291C117.697 369.291 97.7417 349.655 97.7417 325.038V110.958C97.7417 86.3437 117.696 66.3896 142.31 66.3896C166.928 66.3912 186.882 86.3437 186.882 110.958Z" fill="white"/>
<path d="M338.257 325.043C338.257 349.657 318.304 369.611 293.688 369.611C269.072 369.611 249.119 349.659 249.119 325.043C249.119 300.426 269.07 280.477 293.688 280.477C318.304 280.477 338.257 300.425 338.257 325.043Z" fill="white"/>
<path d="M325.203 142.146C307.798 124.741 279.58 124.741 262.173 142.146L186.883 217.442L110.798 293.525C109.726 294.593 108.737 295.693 107.82 296.818C107.74 296.916 107.666 297.016 107.588 297.111C106.896 297.973 106.256 298.854 105.65 299.745C93.6437 317.112 95.334 341.095 110.798 356.558C126.259 372.018 150.242 373.71 167.608 361.7C168.498 361.094 169.379 360.454 170.238 359.765C170.338 359.686 170.439 359.612 170.535 359.53C171.663 358.615 172.759 357.624 173.828 356.558L186.883 343.507V343.504L325.201 205.179C342.61 187.775 342.61 159.553 325.203 142.146Z" fill="white"/>
</svg>
