<svg width="413" height="405" viewBox="0 0 413 405" fill="none" xmlns="http://www.w3.org/2000/svg">
<rect width="412.942" height="404.367" fill="#2D2DC3"/>
<g clip-path="url(#clip0_504_4266)">
<g opacity="0.5">
<path d="M375.429 139.289C375.429 135.254 375.429 131.22 375.409 127.189C375.388 123.79 375.347 120.392 375.257 116.997C375.056 109.597 374.621 102.135 373.307 94.8163C371.973 87.3871 369.794 80.471 366.354 73.719C362.98 67.0902 358.568 61.0196 353.31 55.7617C348.048 50.4996 341.982 46.0914 335.349 42.7133C328.601 39.2778 321.689 37.0983 314.264 35.7643C306.945 34.4468 299.475 34.0117 292.074 33.8106C288.676 33.7203 285.281 33.6792 281.883 33.6587C277.848 33.6341 273.813 33.6382 269.783 33.6382H143.338C139.304 33.6382 135.269 33.6382 131.238 33.6587C127.84 33.6792 124.441 33.7203 121.047 33.8106C113.646 34.0117 106.176 34.4468 98.8574 35.7643C91.4323 37.0983 84.5203 39.2778 77.7724 42.7133C71.1395 46.0873 65.073 50.4996 59.811 55.7617C54.5489 61.0237 50.1407 67.0902 46.7626 73.719C43.3271 80.471 41.1476 87.383 39.8137 94.8163C38.5002 102.135 38.061 109.597 37.864 116.997C37.7737 120.396 37.7326 123.79 37.7121 127.189C37.6875 131.224 37.6875 135.258 37.6875 139.289V265.729C37.6875 269.764 37.6875 273.799 37.7121 277.83C37.7326 281.228 37.7737 284.623 37.864 288.021C38.0651 295.422 38.5002 302.884 39.8137 310.202C41.1476 317.631 43.3271 324.547 46.7626 331.299C50.1366 337.928 54.5489 343.999 59.811 349.257C65.073 354.519 71.1395 358.927 77.7724 362.305C84.5203 365.741 91.4323 367.92 98.8574 369.254C106.176 370.572 113.642 371.007 121.047 371.208C124.445 371.298 127.84 371.339 131.238 371.36C135.273 371.384 139.308 371.38 143.338 371.38H269.779C273.813 371.38 277.848 371.38 281.879 371.36C285.277 371.339 288.672 371.298 292.07 371.208C299.471 371.007 306.937 370.572 314.26 369.254C321.685 367.92 328.597 365.741 335.345 362.305C341.977 358.931 348.044 354.519 353.306 349.257C358.568 343.995 362.976 337.928 366.35 331.299C369.786 324.547 371.965 317.635 373.303 310.202C374.617 302.884 375.056 295.422 375.253 288.021C375.343 284.623 375.384 281.228 375.405 277.83C375.429 273.795 375.425 269.76 375.425 265.729V139.289H375.429Z" stroke="white" stroke-width="0.659652" stroke-miterlimit="10"/>
<path d="M143.23 33.6381V371.38" stroke="white" stroke-width="0.659652" stroke-miterlimit="10"/>
<path d="M269.537 33.6381V371.38" stroke="white" stroke-width="0.659652" stroke-miterlimit="10"/>
<path d="M375.429 139.182H37.6875" stroke="white" stroke-width="0.659652" stroke-miterlimit="10"/>
<path d="M375.429 265.483H37.6875" stroke="white" stroke-width="0.659652" stroke-miterlimit="10"/>
<path d="M375.429 202.507H37.6875" stroke="white" stroke-width="0.659652" stroke-miterlimit="10"/>
<path d="M206.207 371.38V33.6381" stroke="white" stroke-width="0.659652" stroke-miterlimit="10"/>
<path d="M353.27 371.38V33.6381" stroke="white" stroke-width="0.659652" stroke-miterlimit="10"/>
<path d="M59.498 371.38V33.6381" stroke="white" stroke-width="0.659652" stroke-miterlimit="10"/>
<path d="M37.6875 349.215H375.429" stroke="white" stroke-width="0.659652" stroke-miterlimit="10"/>
<path d="M37.6875 55.4496H375.429" stroke="white" stroke-width="0.659652" stroke-miterlimit="10"/>
<path d="M206.591 265.795C241.526 265.795 269.846 237.475 269.846 202.54C269.846 167.605 241.526 139.285 206.591 139.285C171.656 139.285 143.336 167.605 143.336 202.54C143.336 237.475 171.656 265.795 206.591 265.795Z" stroke="white" stroke-width="0.659652" stroke-miterlimit="10"/>
<path d="M37.6875 33.6382L375.429 371.38" stroke="white" stroke-width="0.659652" stroke-miterlimit="10"/>
<path d="M37.6875 371.38L375.429 33.6382" stroke="white" stroke-width="0.659652" stroke-miterlimit="10"/>
<path d="M295.755 209.916C299.83 160.669 263.211 117.442 213.963 113.368C164.716 109.293 121.49 145.912 117.415 195.16C113.34 244.407 149.96 287.633 199.207 291.708C248.455 295.783 291.681 259.163 295.755 209.916Z" stroke="white" stroke-width="0.659652" stroke-miterlimit="10"/>
<path d="M206.589 349.248C287.614 349.248 353.298 283.565 353.298 202.54C353.298 121.515 287.614 55.8313 206.589 55.8313C125.565 55.8313 59.8809 121.515 59.8809 202.54C59.8809 283.565 125.565 349.248 206.589 349.248Z" stroke="white" stroke-width="0.659652" stroke-miterlimit="10"/>
</g>
</g>
<path d="M180.947 116.485V287.031C180.947 306.642 165.051 322.286 145.439 322.286C125.831 322.286 109.934 306.643 109.934 287.031V116.485C109.934 96.8761 125.83 80.9797 145.439 80.9797C165.051 80.9809 180.947 96.8761 180.947 116.485Z" fill="white"/>
<path d="M301.541 287.035C301.541 306.645 285.646 322.541 266.035 322.541C246.425 322.541 230.529 306.646 230.529 287.035C230.529 267.425 246.423 251.532 266.035 251.532C285.646 251.532 301.541 267.424 301.541 287.035Z" fill="white"/>
<path d="M291.139 141.331C277.274 127.466 254.794 127.466 240.926 141.331L180.946 201.315L120.333 261.927C119.479 262.777 118.691 263.654 117.961 264.55C117.897 264.628 117.839 264.708 117.776 264.783C117.225 265.47 116.715 266.172 116.233 266.882C106.668 280.717 108.014 299.823 120.333 312.142C132.65 324.458 151.756 325.806 165.591 316.238C166.3 315.756 167.002 315.246 167.686 314.697C167.766 314.634 167.846 314.575 167.923 314.51C168.821 313.781 169.695 312.992 170.546 312.142L180.946 301.745V301.743L291.138 191.546C305.007 177.681 305.007 155.198 291.139 141.331Z" fill="white"/>
<defs>
<clipPath id="clip0_504_4266">
<rect width="337.742" height="337.742" fill="white" transform="translate(37.6875 33.6422)"/>
</clipPath>
</defs>
</svg>
