<svg width="82" height="46" viewBox="0 0 82 46" fill="none" xmlns="http://www.w3.org/2000/svg">
<path d="M7.99989 3.99998C7.99989 1.79084 6.20903 -1.67148e-05 3.99989 -1.67156e-05C1.79076 -1.67164e-05 -0.000106811 1.79084 -0.000106811 3.99998C-0.000106812 6.20912 1.79076 7.99998 3.99989 7.99998C6.20903 7.99998 7.99989 6.20912 7.99989 3.99998ZM81.9812 4.08984C81.9812 1.8807 80.1903 0.0898438 77.9812 0.0898438C75.7721 0.0898437 73.9812 1.8807 73.9812 4.08984C73.9812 6.29898 75.7721 8.08984 77.9812 8.08984C80.1903 8.08984 81.9812 6.29898 81.9812 4.08984ZM3.99989 3.99998L3.99899 4.74998L77.9803 4.83984L77.9812 4.08984L77.9821 3.33984L4.0008 3.24998L3.99989 3.99998Z" fill="#7E9052"/>
<path d="M0.000732422 4C0.000732422 6.20914 1.79159 8 4.00073 8C6.20987 8 8.00073 6.20914 8.00073 4C8.00073 1.79086 6.20987 0 4.00073 0C1.79159 0 0.000732422 1.79086 0.000732422 4ZM0.000732422 42C0.000732422 44.2091 1.79159 46 4.00073 46C6.20987 46 8.00073 44.2091 8.00073 42C8.00073 39.7909 6.20987 38 4.00073 38C1.79159 38 0.000732422 39.7909 0.000732422 42ZM74.0007 4C74.0007 6.20914 75.7916 8 78.0007 8C80.2099 8 82.0007 6.20914 82.0007 4C82.0007 1.79086 80.2099 0 78.0007 0C75.7916 0 74.0007 1.79086 74.0007 4ZM74.0007 42C74.0007 44.2091 75.7916 46 78.0007 46C80.2099 46 82.0007 44.2091 82.0007 42C82.0007 39.7909 80.2099 38 78.0007 38C75.7916 38 74.0007 39.7909 74.0007 42ZM4.00073 4H3.25073V42H4.00073H4.75073V4H4.00073ZM78.0007 4H77.2507V42H78.0007H78.7507V4H78.0007Z" fill="#7E9052"/>
<path d="M8.00073 42C8.00073 39.7909 6.20987 38 4.00073 38C1.79159 38 0.000732423 39.7909 0.000732422 42C0.000732421 44.2091 1.79159 46 4.00073 46C6.20987 46 8.00073 44.2091 8.00073 42ZM82.0007 42C82.0007 39.7909 80.2099 38 78.0007 38C75.7916 38 74.0007 39.7909 74.0007 42C74.0007 44.2091 75.7916 46 78.0007 46C80.2099 46 82.0007 44.2091 82.0007 42ZM4.00073 42L4.00073 42.75L78.0007 42.75L78.0007 42L78.0007 41.25L4.00073 41.25L4.00073 42Z" fill="#7E9052"/>
<path d="M12.9854 35V9.63477H17.3447V35H12.9854ZM24.7275 35L18.4873 26.5273L21.2822 23.293L29.7725 35H24.7275ZM16.7119 29.1992V24.1016H17.4502L24.4111 16.3672H29.4561L20.7725 25.8066H19.9639L16.7119 29.1992ZM30.4854 35V31.9062L39.4327 23.1699C40.546 22.0918 41.3897 21.1953 41.9639 20.4805C42.5382 19.7539 42.9307 19.1094 43.1417 18.5469C43.3643 17.9727 43.4757 17.375 43.4757 16.7539V16.7188C43.4757 15.957 43.294 15.2891 42.9307 14.7148C42.5792 14.1289 42.087 13.6719 41.4542 13.3438C40.8331 13.0039 40.1182 12.834 39.3096 12.834C38.3721 12.834 37.5401 13.0273 36.8136 13.4141C36.0987 13.7891 35.5304 14.3047 35.1085 14.9609C34.6983 15.6055 34.4874 16.3379 34.4757 17.1582V17.2812H30.2218V17.1582C30.2218 15.6113 30.6202 14.2402 31.4171 13.0449C32.2139 11.8496 33.2921 10.9121 34.6514 10.2324C36.0225 9.54102 37.5636 9.19531 39.2745 9.19531C40.962 9.19531 42.4561 9.51172 43.7569 10.1445C45.0577 10.7656 46.0714 11.627 46.7979 12.7285C47.5362 13.8184 47.9054 15.0605 47.9054 16.4551V16.4902C47.9054 17.4863 47.7237 18.418 47.3604 19.2852C47.0089 20.1523 46.4054 21.0957 45.5499 22.1152C44.7061 23.1348 43.5343 24.3594 42.0343 25.7891L34.8272 32.6621L36.462 29.6738V32.6621L34.8448 31.291H48.2921V35H30.4854ZM59.9914 35.4395C58.2336 35.4395 56.6867 35.1172 55.3507 34.4727C54.0148 33.8281 52.9484 32.9551 52.1515 31.8535C51.3664 30.7402 50.9152 29.4863 50.798 28.0918L50.7804 27.8633H55.0343L55.0519 27.9863C55.1691 28.6895 55.4504 29.3281 55.8957 29.9023C56.3527 30.4766 56.9328 30.9277 57.6359 31.2559C58.339 31.584 59.1359 31.748 60.0265 31.748C61.0343 31.748 61.9191 31.5371 62.6808 31.1152C63.4543 30.6816 64.0578 30.0898 64.4914 29.3398C64.925 28.5781 65.1418 27.6992 65.1418 26.7031V26.668C65.1418 25.6953 64.925 24.8398 64.4914 24.1016C64.0578 23.3516 63.4543 22.7656 62.6808 22.3438C61.9191 21.9102 61.0402 21.6934 60.0441 21.6934C59.3293 21.6934 58.6613 21.7988 58.0402 22.0098C57.4191 22.2207 56.8683 22.5312 56.3879 22.9414C56.1535 23.1406 55.9308 23.3633 55.7199 23.6094C55.5089 23.8438 55.3273 24.1016 55.175 24.3828H51.2375L52.4504 9.63477H68.0246V13.3438H56.0714L55.3683 20.9902H55.4562C55.8312 20.416 56.3 19.9297 56.8625 19.5312C57.4367 19.1328 58.0871 18.8281 58.8136 18.6172C59.5519 18.3945 60.3429 18.2832 61.1867 18.2832C62.8039 18.2832 64.2394 18.6465 65.4933 19.373C66.7472 20.0879 67.7316 21.0664 68.4464 22.3086C69.1613 23.5508 69.5187 24.9805 69.5187 26.5977V26.6328C69.5187 28.3672 69.1144 29.8965 68.3058 31.2207C67.4972 32.5449 66.3781 33.582 64.9484 34.332C63.5187 35.0703 61.8664 35.4395 59.9914 35.4395Z" fill="black"/>
</svg>
