<svg width="135" height="54" viewBox="0 0 135 54" fill="none" xmlns="http://www.w3.org/2000/svg">
<path d="M0 4C0 6.20914 1.79086 8 4 8C6.20914 8 8 6.20914 8 4C8 1.79086 6.20914 0 4 0C1.79086 0 0 1.79086 0 4ZM0 43C0 45.2091 1.79086 47 4 47C6.20914 47 8 45.2091 8 43C8 40.7909 6.20914 39 4 39C1.79086 39 0 40.7909 0 43ZM4 4H3.25V43H4H4.75V4H4Z" fill="#4C85EF"/>
<path d="M5 11C5 13.2091 6.79086 15 9 15C11.2091 15 13 13.2091 13 11C13 8.79086 11.2091 7 9 7C6.79086 7 5 8.79086 5 11ZM5 50C5 52.2091 6.79086 54 9 54C11.2091 54 13 52.2091 13 50C13 47.7909 11.2091 46 9 46C6.79086 46 5 47.7909 5 50ZM9 11H8.25V50H9H9.75V11H9Z" fill="#E223B0"/>
<path d="M8.00063 43C8.00063 40.7909 6.20977 39 4.00063 39C1.79149 39 0.00063324 40.7909 0.00063324 43C0.00063324 45.2091 1.79149 47 4.00063 47C6.20977 47 8.00063 45.2091 8.00063 43ZM4.00063 43V43.75H8.25V43V42.25H4.00063V43Z" fill="#4C85EF"/>
<path d="M127 43C127 45.2091 128.791 47 131 47C133.209 47 135 45.2091 135 43C135 40.7909 133.209 39 131 39C128.791 39 127 40.7909 127 43ZM131 43V42.25H124.75V43V43.75H131V43Z" fill="#4C85EF"/>
<path d="M13 50C13 47.7909 11.2091 46 9 46C6.79086 46 5 47.7909 5 50C5 52.2091 6.79086 54 9 54C11.2091 54 13 52.2091 13 50ZM128 50C128 47.7909 126.209 46 124 46C121.791 46 120 47.7909 120 50C120 52.2091 121.791 54 124 54C126.209 54 128 52.2091 128 50ZM9 50V50.75L124 50.75V50V49.25L9 49.25V50Z" fill="#E223B0"/>
<path d="M8 4C8 1.79086 6.20914 0 4 0C1.79086 0 0 1.79086 0 4C0 6.20914 1.79086 8 4 8C6.20914 8 8 6.20914 8 4ZM135 4C135 1.79086 133.209 0 131 0C128.791 0 127 1.79086 127 4C127 6.20914 128.791 8 131 8C133.209 8 135 6.20914 135 4ZM4 4V4.75L131 4.75V4V3.25L4 3.25V4Z" fill="#4C85EF"/>
<path d="M40.9773 30.9091C40.9773 33.7301 40.4489 36.1463 39.392 38.1577C38.3438 40.1605 36.9119 41.6946 35.0966 42.7599C33.2898 43.8253 31.2401 44.358 28.9474 44.358C26.6548 44.358 24.6009 43.8253 22.7855 42.7599C20.9787 41.6861 19.5469 40.1477 18.4901 38.1449C17.4418 36.1335 16.9176 33.7216 16.9176 30.9091C16.9176 28.0881 17.4418 25.6761 18.4901 23.6733C19.5469 21.6619 20.9787 20.1236 22.7855 19.0582C24.6009 17.9929 26.6548 17.4602 28.9474 17.4602C31.2401 17.4602 33.2898 17.9929 35.0966 19.0582C36.9119 20.1236 38.3438 21.6619 39.392 23.6733C40.4489 25.6761 40.9773 28.0881 40.9773 30.9091ZM36.2088 30.9091C36.2088 28.9233 35.8977 27.2486 35.2756 25.8849C34.6619 24.5128 33.8097 23.4773 32.7188 22.7784C31.6278 22.071 30.3707 21.7173 28.9474 21.7173C27.5241 21.7173 26.267 22.071 25.1761 22.7784C24.0852 23.4773 23.2287 24.5128 22.6065 25.8849C21.9929 27.2486 21.6861 28.9233 21.6861 30.9091C21.6861 32.8949 21.9929 34.5739 22.6065 35.946C23.2287 37.3097 24.0852 38.3452 25.1761 39.0526C26.267 39.7514 27.5241 40.1009 28.9474 40.1009C30.3707 40.1009 31.6278 39.7514 32.7188 39.0526C33.8097 38.3452 34.6619 37.3097 35.2756 35.946C35.8977 34.5739 36.2088 32.8949 36.2088 30.9091ZM44.3813 44V17.8182H54.1995C56.2108 17.8182 57.8983 18.1932 59.262 18.9432C60.6341 19.6932 61.6696 20.7244 62.3685 22.0369C63.0759 23.3409 63.4296 24.8239 63.4296 26.4858C63.4296 28.1648 63.0759 29.6562 62.3685 30.9602C61.6611 32.2642 60.6171 33.2912 59.2364 34.0412C57.8557 34.7827 56.1554 35.1534 54.1356 35.1534H47.6285V31.2543H53.4964C54.6725 31.2543 55.6356 31.0497 56.3856 30.6406C57.1356 30.2315 57.6895 29.669 58.0475 28.9531C58.414 28.2372 58.5972 27.4148 58.5972 26.4858C58.5972 25.5568 58.414 24.7386 58.0475 24.0312C57.6895 23.3239 57.1313 22.7741 56.3728 22.3821C55.6228 21.9815 54.6554 21.7812 53.4708 21.7812H49.1242V44H44.3813ZM66.4693 44V17.8182H83.4977V21.794H71.2122V28.902H82.6156V32.8778H71.2122V40.0241H83.5999V44H66.4693ZM108.772 17.8182V44H104.553L92.2167 26.1662H91.9993V44H87.2565V17.8182H91.5008L103.825 35.6648H104.055V17.8182H108.772Z" fill="black"/>
<path d="M120 11C120 13.2091 121.791 15 124 15C126.209 15 128 13.2091 128 11C128 8.79086 126.209 7 124 7C121.791 7 120 8.79086 120 11ZM120 50C120 52.2091 121.791 54 124 54C126.209 54 128 52.2091 128 50C128 47.7909 126.209 46 124 46C121.791 46 120 47.7909 120 50ZM124 11H123.25V50H124H124.75V11H124Z" fill="#E223B0"/>
<path d="M13 11C13 8.79086 11.2091 7 9 7C6.79086 7 5 8.79086 5 11C5 13.2091 6.79086 15 9 15C11.2091 15 13 13.2091 13 11ZM128 11C128 8.79086 126.209 7 124 7C121.791 7 120 8.79086 120 11C120 13.2091 121.791 15 124 15C126.209 15 128 13.2091 128 11ZM9 11V11.75L124 11.75V11V10.25L9 10.25V11Z" fill="#E223B0"/>
<path d="M127 4C127 6.20914 128.791 8 131 8C133.209 8 135 6.20914 135 4C135 1.79086 133.209 0 131 0C128.791 0 127 1.79086 127 4ZM127 43C127 45.2091 128.791 47 131 47C133.209 47 135 45.2091 135 43C135 40.7909 133.209 39 131 39C128.791 39 127 40.7909 127 43ZM131 4H130.25V43H131H131.75V4H131Z" fill="#4C85EF"/>
</svg>
