<svg width="1422" height="277" viewBox="0 0 1422 277" fill="none" xmlns="http://www.w3.org/2000/svg">
<path d="M1403.67 69.9944C1403.67 71.4671 1402.48 72.6635 1401.01 72.6667C1399.53 72.6698 1398.34 71.4784 1398.33 70.0056C1398.33 68.5329 1399.52 67.3365 1400.99 67.3333C1402.47 67.3302 1403.66 68.5216 1403.67 69.9944ZM92.6665 244.994C92.6696 246.467 91.4782 247.664 90.0054 247.667C88.5328 247.67 87.3363 246.478 87.3332 245.006C87.3301 243.533 88.5215 242.336 89.9941 242.333C91.4669 242.33 92.6634 243.522 92.6665 244.994ZM1401 70L1401.07 70.4956L90.066 245.496L89.9998 245L89.9337 244.504L1400.93 69.5044L1401 70Z" fill="#4C85EF"/>
<g filter="url(#filter0_d_26_2)">
<rect x="1400" y="70" width="18" height="49" fill="#E223B0"/>
</g>
<g filter="url(#filter1_d_26_2)">
<rect x="77" y="209" width="13" height="36" fill="#7E9052"/>
</g>
<g filter="url(#filter2_d_26_2)">
<rect x="26" y="104" width="15" height="12" fill="#E223B0"/>
</g>
<g filter="url(#filter3_d_26_2)">
<rect x="146" y="43" width="18" height="16" fill="#4C85EF"/>
</g>
<path d="M87.3333 245C87.3333 246.473 88.5272 247.667 90 247.667C91.4728 247.667 92.6667 246.473 92.6667 245C92.6667 243.527 91.4728 242.333 90 242.333C88.5272 242.333 87.3333 243.527 87.3333 245ZM1414.83 119C1414.83 120.473 1416.03 121.667 1417.5 121.667C1418.97 121.667 1420.17 120.473 1420.17 119C1420.17 117.527 1418.97 116.333 1417.5 116.333C1416.03 116.333 1414.83 117.527 1414.83 119ZM90 245L90.0472 245.498L1417.55 119.498L1417.5 119L1417.45 118.502L89.9528 244.502L90 245Z" fill="#E223B0"/>
<path d="M23.3333 116C23.3333 117.473 24.5272 118.667 26 118.667C27.4728 118.667 28.6667 117.473 28.6667 116C28.6667 114.527 27.4728 113.333 26 113.333C24.5272 113.333 23.3333 114.527 23.3333 116ZM74.3333 209C74.3333 210.473 75.5272 211.667 77 211.667C78.4728 211.667 79.6667 210.473 79.6667 209C79.6667 207.527 78.4728 206.333 77 206.333C75.5272 206.333 74.3333 207.527 74.3333 209ZM26 116L25.5616 116.24L76.5616 209.24L77 209L77.4384 208.76L26.4384 115.76L26 116Z" fill="#7E9052"/>
<path d="M38.3333 114C38.3333 115.473 39.5272 116.667 41 116.667C42.4728 116.667 43.6667 115.473 43.6667 114C43.6667 112.527 42.4728 111.333 41 111.333C39.5272 111.333 38.3333 112.527 38.3333 114ZM87.3333 208.5C87.3333 209.973 88.5272 211.167 90 211.167C91.4728 211.167 92.6667 209.973 92.6667 208.5C92.6667 207.027 91.4728 205.833 90 205.833C88.5272 205.833 87.3333 207.027 87.3333 208.5ZM41 114L40.5561 114.23L89.5561 208.73L90 208.5L90.4439 208.27L41.4439 113.77L41 114Z" fill="#E223B0"/>
<path d="M39.3333 104C39.3333 105.473 40.5272 106.667 42 106.667C43.4728 106.667 44.6667 105.473 44.6667 104C44.6667 102.527 43.4728 101.333 42 101.333C40.5272 101.333 39.3333 102.527 39.3333 104ZM74.3333 243C74.3333 244.473 75.5272 245.667 77 245.667C78.4728 245.667 79.6667 244.473 79.6667 243C79.6667 241.527 78.4728 240.333 77 240.333C75.5272 240.333 74.3333 241.527 74.3333 243ZM42 104L41.5151 104.122L76.5151 243.122L77 243L77.4849 242.878L42.4849 103.878L42 104Z" fill="#4C85EF"/>
<path d="M1420.67 70C1420.67 68.5272 1419.47 67.3333 1418 67.3333C1416.53 67.3333 1415.33 68.5272 1415.33 70C1415.33 71.4728 1416.53 72.6667 1418 72.6667C1419.47 72.6667 1420.67 71.4728 1420.67 70ZM166.667 43C166.667 41.5272 165.473 40.3333 164 40.3333C162.527 40.3333 161.333 41.5272 161.333 43C161.333 44.4728 162.527 45.6667 164 45.6667C165.473 45.6667 166.667 44.4728 166.667 43ZM1418 70L1418.01 69.5001L164.011 42.5001L164 43L163.989 43.4999L1417.99 70.4999L1418 70Z" fill="#4C85EF"/>
<path d="M1403.67 70C1403.67 68.5272 1402.47 67.3333 1401 67.3333C1399.53 67.3333 1398.33 68.5272 1398.33 70C1398.33 71.4728 1399.53 72.6667 1401 72.6667C1402.47 72.6667 1403.67 71.4728 1403.67 70ZM166.667 59C166.667 57.5272 165.473 56.3333 164 56.3333C162.527 56.3333 161.333 57.5272 161.333 59C161.333 60.4728 162.527 61.6667 164 61.6667C165.473 61.6667 166.667 60.4728 166.667 59ZM1401 70L1401 69.5L164.005 58.5L164 59L163.996 59.5L1401 70.5L1401 70Z" fill="#E223B0"/>
<path d="M148.667 58C148.667 59.4728 147.473 60.6667 146 60.6667C144.527 60.6667 143.333 59.4728 143.333 58C143.333 56.5272 144.527 55.3333 146 55.3333C147.473 55.3333 148.667 56.5272 148.667 58ZM43.6667 114C43.6667 115.473 42.4728 116.667 41 116.667C39.5272 116.667 38.3333 115.473 38.3333 114C38.3333 112.527 39.5272 111.333 41 111.333C42.4728 111.333 43.6667 112.527 43.6667 114ZM146 58L146.235 58.4412L41.2353 114.441L41 114L40.7647 113.559L145.765 57.5588L146 58Z" fill="#7E9052"/>
<path d="M87.3333 209C87.3333 210.473 88.5272 211.667 90 211.667C91.4728 211.667 92.6667 210.473 92.6667 209C92.6667 207.527 91.4728 206.333 90 206.333C88.5272 206.333 87.3333 207.527 87.3333 209ZM1397.33 119C1397.33 120.473 1398.53 121.667 1400 121.667C1401.47 121.667 1402.67 120.473 1402.67 119C1402.67 117.527 1401.47 116.333 1400 116.333C1398.53 116.333 1397.33 117.527 1397.33 119ZM90 209L90.0343 209.499L1400.03 119.499L1400 119L1399.97 118.501L89.9657 208.501L90 209Z" fill="#7E9052"/>
<path d="M161.333 59C161.333 57.5272 162.527 56.3333 164 56.3333C165.473 56.3333 166.667 57.5272 166.667 59C166.667 60.4728 165.473 61.6667 164 61.6667C162.527 61.6667 161.333 60.4728 161.333 59ZM1397.33 119C1397.33 117.527 1398.53 116.333 1400 116.333C1401.47 116.333 1402.67 117.527 1402.67 119C1402.67 120.473 1401.47 121.667 1400 121.667C1398.53 121.667 1397.33 120.473 1397.33 119ZM164 59L164.024 58.5006L1400.02 118.501L1400 119L1399.98 119.499L163.976 59.4994L164 59Z" fill="#7E9052"/>
<path d="M23.3333 104C23.3333 102.527 24.5272 101.333 26 101.333C27.4728 101.333 28.6667 102.527 28.6667 104C28.6667 105.473 27.4728 106.667 26 106.667C24.5272 106.667 23.3333 105.473 23.3333 104ZM143.333 58C143.333 56.5272 144.527 55.3333 146 55.3333C147.473 55.3333 148.667 56.5272 148.667 58C148.667 59.4728 147.473 60.6667 146 60.6667C144.527 60.6667 143.333 59.4728 143.333 58ZM26 104L25.821 103.533L145.821 57.5331L146 58L146.179 58.4669L26.179 104.467L26 104Z" fill="#4C85EF"/>
<path d="M148.667 43C148.667 44.4728 147.473 45.6667 146 45.6667C144.527 45.6667 143.333 44.4728 143.333 43C143.333 41.5272 144.527 40.3333 146 40.3333C147.473 40.3333 148.667 41.5272 148.667 43ZM28.6667 104C28.6667 105.473 27.4728 106.667 26 106.667C24.5272 106.667 23.3333 105.473 23.3333 104C23.3333 102.527 24.5272 101.333 26 101.333C27.4728 101.333 28.6667 102.527 28.6667 104ZM146 43L146.227 43.4457L26.2266 104.446L26 104L25.7734 103.554L145.773 42.5543L146 43Z" fill="#E223B0"/>
<path d="M1230.33 19C1230.33 20.4728 1231.53 21.6667 1233 21.6667C1234.47 21.6667 1235.67 20.4728 1235.67 19C1235.67 17.5272 1234.47 16.3333 1233 16.3333C1231.53 16.3333 1230.33 17.5272 1230.33 19ZM1230.33 48C1230.33 49.4728 1231.53 50.6667 1233 50.6667C1234.47 50.6667 1235.67 49.4728 1235.67 48C1235.67 46.5272 1234.47 45.3333 1233 45.3333C1231.53 45.3333 1230.33 46.5272 1230.33 48ZM1233 19H1232.5V48H1233H1233.5V19H1233Z" fill="#E223B0"/>
<path d="M1414.33 19C1414.33 20.4728 1415.53 21.6667 1417 21.6667C1418.47 21.6667 1419.67 20.4728 1419.67 19C1419.67 17.5272 1418.47 16.3333 1417 16.3333C1415.53 16.3333 1414.33 17.5272 1414.33 19ZM1414.33 48C1414.33 49.4728 1415.53 50.6667 1417 50.6667C1418.47 50.6667 1419.67 49.4728 1419.67 48C1419.67 46.5272 1418.47 45.3333 1417 45.3333C1415.53 45.3333 1414.33 46.5272 1414.33 48ZM1417 19H1416.5V48H1417H1417.5V19H1417Z" fill="#E223B0"/>
<path d="M1235.67 48C1235.67 46.5272 1234.47 45.3333 1233 45.3333C1231.53 45.3333 1230.33 46.5272 1230.33 48C1230.33 49.4728 1231.53 50.6667 1233 50.6667C1234.47 50.6667 1235.67 49.4728 1235.67 48ZM1419.67 48C1419.67 46.5272 1418.47 45.3333 1417 45.3333C1415.53 45.3333 1414.33 46.5272 1414.33 48C1414.33 49.4728 1415.53 50.6667 1417 50.6667C1418.47 50.6667 1419.67 49.4728 1419.67 48ZM1233 48V48.5L1417 48.5V48V47.5L1233 47.5V48Z" fill="#E223B0"/>
<path d="M1235.67 19C1235.67 17.5272 1234.47 16.3333 1233 16.3333C1231.53 16.3333 1230.33 17.5272 1230.33 19C1230.33 20.4728 1231.53 21.6667 1233 21.6667C1234.47 21.6667 1235.67 20.4728 1235.67 19ZM1419.67 19C1419.67 17.5272 1418.47 16.3333 1417 16.3333C1415.53 16.3333 1414.33 17.5272 1414.33 19C1414.33 20.4728 1415.53 21.6667 1417 21.6667C1418.47 21.6667 1419.67 20.4728 1419.67 19ZM1233 19V19.5L1417 19.5V19V18.5L1233 18.5V19Z" fill="#E223B0"/>
<path d="M1245.96 42H1242.59L1248.73 24.5455H1252.64L1258.79 42H1255.41L1250.75 28.125H1250.62L1245.96 42ZM1246.07 35.1562H1255.28V37.696H1246.07V35.1562ZM1263.53 24.5455V42H1260.37V24.5455H1263.53ZM1273.22 23.7273L1267.6 44.625H1264.9L1270.52 23.7273H1273.22ZM1274.61 24.5455H1278.48L1283.66 37.1932H1283.86L1289.05 24.5455H1292.92V42H1289.88V30.0085H1289.72L1284.9 41.9489H1282.63L1277.8 29.983H1277.64V42H1274.61V24.5455ZM1295.64 42V24.5455H1298.8V39.3494H1306.49V42H1295.64ZM1313.75 42V24.5455H1325.1V27.196H1316.91V31.9347H1324.51V34.5852H1316.91V39.3494H1325.17V42H1313.75ZM1330.55 34.3295V42H1327.47V28.9091H1330.42V31.1335H1330.57C1330.87 30.4006 1331.35 29.8182 1332.01 29.3864C1332.67 28.9545 1333.5 28.7386 1334.47 28.7386C1335.38 28.7386 1336.16 28.9318 1336.83 29.3182C1337.51 29.7045 1338.03 30.2642 1338.4 30.9972C1338.78 31.7301 1338.96 32.6193 1338.96 33.6648V42H1335.87V34.142C1335.87 33.267 1335.64 32.5824 1335.19 32.0881C1334.74 31.5937 1334.12 31.3466 1333.32 31.3466C1332.78 31.3466 1332.3 31.4659 1331.88 31.7045C1331.47 31.9375 1331.14 32.2756 1330.9 32.7188C1330.67 33.1619 1330.55 33.6989 1330.55 34.3295ZM1347.07 47.1818C1345.96 47.1818 1345.01 47.0313 1344.21 46.7301C1343.41 46.4347 1342.78 46.0369 1342.29 45.5369C1341.81 45.0369 1341.47 44.483 1341.29 43.875L1344.07 43.2017C1344.19 43.4574 1344.37 43.7102 1344.61 43.9602C1344.85 44.2159 1345.17 44.4261 1345.57 44.5909C1345.98 44.7614 1346.5 44.8466 1347.12 44.8466C1347.99 44.8466 1348.72 44.6335 1349.29 44.2074C1349.86 43.7869 1350.15 43.0938 1350.15 42.1278V39.6477H1350C1349.84 39.9659 1349.61 40.2926 1349.3 40.6278C1349 40.9631 1348.6 41.2443 1348.1 41.4716C1347.6 41.6989 1346.98 41.8125 1346.23 41.8125C1345.22 41.8125 1344.31 41.5767 1343.49 41.1051C1342.68 40.6278 1342.03 39.9176 1341.55 38.9744C1341.07 38.0256 1340.84 36.8381 1340.84 35.4119C1340.84 33.9744 1341.07 32.7614 1341.55 31.7727C1342.03 30.7784 1342.68 30.0256 1343.5 29.5142C1344.32 28.9972 1345.23 28.7386 1346.24 28.7386C1347.01 28.7386 1347.64 28.8693 1348.13 29.1307C1348.63 29.3864 1349.03 29.696 1349.32 30.0597C1349.62 30.4176 1349.84 30.7557 1350 31.0739H1350.17V28.9091H1353.21V42.2131C1353.21 43.3324 1352.94 44.2585 1352.41 44.9915C1351.87 45.7244 1351.14 46.2727 1350.22 46.6364C1349.29 47 1348.24 47.1818 1347.07 47.1818ZM1347.09 39.392C1347.74 39.392 1348.3 39.233 1348.76 38.9148C1349.22 38.5966 1349.57 38.1392 1349.81 37.5426C1350.05 36.946 1350.17 36.2301 1350.17 35.3949C1350.17 34.571 1350.05 33.8494 1349.81 33.2301C1349.58 32.6108 1349.23 32.1307 1348.77 31.7898C1348.32 31.4432 1347.76 31.2699 1347.09 31.2699C1346.4 31.2699 1345.83 31.4489 1345.37 31.8068C1344.91 32.1648 1344.56 32.6562 1344.33 33.2812C1344.1 33.9006 1343.98 34.6051 1343.98 35.3949C1343.98 36.196 1344.1 36.8977 1344.33 37.5C1344.57 38.0966 1344.92 38.5625 1345.38 38.8977C1345.84 39.2273 1346.41 39.392 1347.09 39.392ZM1355.65 42V28.9091H1358.74V42H1355.65ZM1357.2 27.0511C1356.71 27.0511 1356.29 26.8892 1355.94 26.5653C1355.59 26.2358 1355.41 25.8409 1355.41 25.3807C1355.41 24.9148 1355.59 24.5199 1355.94 24.196C1356.29 23.8665 1356.71 23.7017 1357.2 23.7017C1357.7 23.7017 1358.12 23.8665 1358.46 24.196C1358.82 24.5199 1358.99 24.9148 1358.99 25.3807C1358.99 25.8409 1358.82 26.2358 1358.46 26.5653C1358.12 26.8892 1357.7 27.0511 1357.2 27.0511ZM1364.28 34.3295V42H1361.19V28.9091H1364.14V31.1335H1364.29C1364.59 30.4006 1365.07 29.8182 1365.73 29.3864C1366.4 28.9545 1367.22 28.7386 1368.2 28.7386C1369.1 28.7386 1369.89 28.9318 1370.56 29.3182C1371.23 29.7045 1371.76 30.2642 1372.12 30.9972C1372.5 31.7301 1372.68 32.6193 1372.68 33.6648V42H1369.59V34.142C1369.59 33.267 1369.37 32.5824 1368.91 32.0881C1368.46 31.5937 1367.84 31.3466 1367.05 31.3466C1366.51 31.3466 1366.03 31.4659 1365.6 31.7045C1365.19 31.9375 1364.86 32.2756 1364.62 32.7188C1364.39 33.1619 1364.28 33.6989 1364.28 34.3295ZM1380.89 42.2557C1379.58 42.2557 1378.44 41.983 1377.49 41.4375C1376.54 40.8864 1375.81 40.108 1375.3 39.1023C1374.79 38.0909 1374.53 36.9006 1374.53 35.5312C1374.53 34.1847 1374.79 33.0028 1375.3 31.9858C1375.82 30.9631 1376.54 30.1676 1377.46 29.5994C1378.39 29.0256 1379.48 28.7386 1380.73 28.7386C1381.54 28.7386 1382.3 28.8693 1383.01 29.1307C1383.73 29.3864 1384.37 29.7841 1384.92 30.3239C1385.48 30.8636 1385.92 31.5511 1386.23 32.3864C1386.55 33.2159 1386.71 34.2045 1386.71 35.3523V36.2983H1375.98V34.2188H1383.75C1383.75 33.6278 1383.62 33.1023 1383.37 32.642C1383.12 32.1761 1382.77 31.8097 1382.32 31.5426C1381.88 31.2756 1381.36 31.142 1380.77 31.142C1380.14 31.142 1379.59 31.2955 1379.11 31.6023C1378.63 31.9034 1378.26 32.3011 1377.99 32.7955C1377.73 33.2841 1377.6 33.821 1377.59 34.4062V36.2216C1377.59 36.983 1377.73 37.6364 1378.01 38.1818C1378.29 38.7216 1378.68 39.1364 1379.18 39.4261C1379.68 39.7102 1380.26 39.8523 1380.93 39.8523C1381.38 39.8523 1381.79 39.7898 1382.15 39.6648C1382.52 39.5341 1382.83 39.3438 1383.1 39.0938C1383.36 38.8438 1383.57 38.5341 1383.7 38.1648L1386.58 38.4886C1386.4 39.25 1386.06 39.9148 1385.54 40.483C1385.04 41.0455 1384.39 41.483 1383.6 41.7955C1382.81 42.1023 1381.91 42.2557 1380.89 42.2557ZM1394.4 42.2557C1393.08 42.2557 1391.95 41.983 1391 41.4375C1390.05 40.8864 1389.32 40.108 1388.81 39.1023C1388.29 38.0909 1388.04 36.9006 1388.04 35.5312C1388.04 34.1847 1388.29 33.0028 1388.81 31.9858C1389.32 30.9631 1390.04 30.1676 1390.97 29.5994C1391.9 29.0256 1392.99 28.7386 1394.24 28.7386C1395.04 28.7386 1395.8 28.8693 1396.52 29.1307C1397.24 29.3864 1397.88 29.7841 1398.43 30.3239C1398.99 30.8636 1399.42 31.5511 1399.74 32.3864C1400.06 33.2159 1400.22 34.2045 1400.22 35.3523V36.2983H1389.49V34.2188H1397.26C1397.25 33.6278 1397.13 33.1023 1396.88 32.642C1396.63 32.1761 1396.28 31.8097 1395.83 31.5426C1395.39 31.2756 1394.87 31.142 1394.28 31.142C1393.65 31.142 1393.09 31.2955 1392.62 31.6023C1392.14 31.9034 1391.77 32.3011 1391.5 32.7955C1391.24 33.2841 1391.1 33.821 1391.1 34.4062V36.2216C1391.1 36.983 1391.24 37.6364 1391.52 38.1818C1391.79 38.7216 1392.18 39.1364 1392.68 39.4261C1393.18 39.7102 1393.77 39.8523 1394.44 39.8523C1394.89 39.8523 1395.29 39.7898 1395.66 39.6648C1396.02 39.5341 1396.34 39.3438 1396.6 39.0938C1396.87 38.8438 1397.07 38.5341 1397.21 38.1648L1400.09 38.4886C1399.91 39.25 1399.56 39.9148 1399.05 40.483C1398.54 41.0455 1397.9 41.483 1397.11 41.7955C1396.32 42.1023 1395.41 42.2557 1394.4 42.2557ZM1402.11 42V28.9091H1405.1V31.0909H1405.24C1405.47 30.3352 1405.88 29.7528 1406.46 29.3438C1407.05 28.929 1407.72 28.7216 1408.47 28.7216C1408.64 28.7216 1408.83 28.7301 1409.04 28.7472C1409.25 28.7585 1409.43 28.7784 1409.57 28.8068V31.6449C1409.44 31.5994 1409.24 31.5597 1408.95 31.5256C1408.67 31.4858 1408.4 31.4659 1408.14 31.4659C1407.58 31.4659 1407.07 31.5881 1406.63 31.8324C1406.18 32.071 1405.83 32.4034 1405.58 32.8295C1405.32 33.2557 1405.19 33.7472 1405.19 34.304V42H1402.11Z" fill="black"/>
<path d="M91.3333 154C91.3333 155.473 92.5272 156.667 94 156.667C95.4728 156.667 96.6667 155.473 96.6667 154C96.6667 152.527 95.4728 151.333 94 151.333C92.5272 151.333 91.3333 152.527 91.3333 154ZM91.3333 183C91.3333 184.473 92.5272 185.667 94 185.667C95.4728 185.667 96.6667 184.473 96.6667 183C96.6667 181.527 95.4728 180.333 94 180.333C92.5272 180.333 91.3333 181.527 91.3333 183ZM94 154H93.5V183H94H94.5V154H94Z" fill="#4C85EF"/>
<path d="M0.333333 125C0.333333 126.473 1.52724 127.667 3 127.667C4.47276 127.667 5.66667 126.473 5.66667 125C5.66667 123.527 4.47276 122.333 3 122.333C1.52724 122.333 0.333333 123.527 0.333333 125ZM0.333333 154C0.333333 155.473 1.52724 156.667 3 156.667C4.47276 156.667 5.66667 155.473 5.66667 154C5.66667 152.527 4.47276 151.333 3 151.333C1.52724 151.333 0.333333 152.527 0.333333 154ZM3 125H2.5V154H3H3.5V125H3Z" fill="#E223B0"/>
<path d="M87.3333 245C87.3333 246.473 88.5272 247.667 90 247.667C91.4728 247.667 92.6667 246.473 92.6667 245C92.6667 243.527 91.4728 242.333 90 242.333C88.5272 242.333 87.3333 243.527 87.3333 245ZM87.3333 274C87.3333 275.473 88.5272 276.667 90 276.667C91.4728 276.667 92.6667 275.473 92.6667 274C92.6667 272.527 91.4728 271.333 90 271.333C88.5272 271.333 87.3333 272.527 87.3333 274ZM90 245H89.5V274H90H90.5V245H90Z" fill="#7E9052"/>
<path d="M118.333 3C118.333 4.47276 119.527 5.66667 121 5.66667C122.473 5.66667 123.667 4.47276 123.667 3C123.667 1.52724 122.473 0.333333 121 0.333333C119.527 0.333333 118.333 1.52724 118.333 3ZM118.333 32C118.333 33.4728 119.527 34.6667 121 34.6667C122.473 34.6667 123.667 33.4728 123.667 32C123.667 30.5272 122.473 29.3333 121 29.3333C119.527 29.3333 118.333 30.5272 118.333 32ZM121 3H120.5V32H121H121.5V3H121Z" fill="#4C85EF"/>
<path d="M218.333 154C218.333 155.473 219.527 156.667 221 156.667C222.473 156.667 223.667 155.473 223.667 154C223.667 152.527 222.473 151.333 221 151.333C219.527 151.333 218.333 152.527 218.333 154ZM218.333 183C218.333 184.473 219.527 185.667 221 185.667C222.473 185.667 223.667 184.473 223.667 183C223.667 181.527 222.473 180.333 221 180.333C219.527 180.333 218.333 181.527 218.333 183ZM221 154H220.5V183H221H221.5V154H221Z" fill="#4C85EF"/>
<path d="M112.333 125C112.333 126.473 113.527 127.667 115 127.667C116.473 127.667 117.667 126.473 117.667 125C117.667 123.527 116.473 122.333 115 122.333C113.527 122.333 112.333 123.527 112.333 125ZM115 125H114.5V154H115H115.5V125H115Z" fill="#E223B0"/>
<path d="M324.333 245C324.333 246.473 325.527 247.667 327 247.667C328.473 247.667 329.667 246.473 329.667 245C329.667 243.527 328.473 242.333 327 242.333C325.527 242.333 324.333 243.527 324.333 245ZM324.333 274C324.333 275.473 325.527 276.667 327 276.667C328.473 276.667 329.667 275.473 329.667 274C329.667 272.527 328.473 271.333 327 271.333C325.527 271.333 324.333 272.527 324.333 274ZM327 245H326.5V274H327H327.5V245H327Z" fill="#7E9052"/>
<path d="M302.333 3C302.333 4.47276 303.527 5.66667 305 5.66667C306.473 5.66667 307.667 4.47276 307.667 3C307.667 1.52724 306.473 0.333333 305 0.333333C303.527 0.333333 302.333 1.52724 302.333 3ZM302.333 32C302.333 33.4728 303.527 34.6667 305 34.6667C306.473 34.6667 307.667 33.4728 307.667 32C307.667 30.5272 306.473 29.3333 305 29.3333C303.527 29.3333 302.333 30.5272 302.333 32ZM305 3H304.5V32H305H305.5V3H305Z" fill="#4C85EF"/>
<path d="M96.6667 183C96.6667 181.527 95.4728 180.333 94 180.333C92.5272 180.333 91.3333 181.527 91.3333 183C91.3333 184.473 92.5272 185.667 94 185.667C95.4728 185.667 96.6667 184.473 96.6667 183ZM223.667 183C223.667 181.527 222.473 180.333 221 180.333C219.527 180.333 218.333 181.527 218.333 183C218.333 184.473 219.527 185.667 221 185.667C222.473 185.667 223.667 184.473 223.667 183ZM94 183V183.5L221 183.5V183V182.5L94 182.5V183Z" fill="#4C85EF"/>
<path d="M5.66666 154C5.66666 152.527 4.47276 151.333 3 151.333C1.52724 151.333 0.333336 152.527 0.333336 154C0.333336 155.473 1.52724 156.667 3 156.667C4.47276 156.667 5.66666 155.473 5.66666 154ZM3 154V154.5H115V154V153.5H3V154Z" fill="#E223B0"/>
<path d="M123.667 32C123.667 30.5272 122.473 29.3333 121 29.3333C119.527 29.3333 118.333 30.5272 118.333 32C118.333 33.4728 119.527 34.6667 121 34.6667C122.473 34.6667 123.667 33.4728 123.667 32ZM307.667 32C307.667 30.5272 306.473 29.3333 305 29.3333C303.527 29.3333 302.333 30.5272 302.333 32C302.333 33.4728 303.527 34.6667 305 34.6667C306.473 34.6667 307.667 33.4728 307.667 32ZM121 32V32.5L305 32.5V32V31.5L121 31.5V32Z" fill="#4C85EF"/>
<path d="M96.6667 154C96.6667 152.527 95.4728 151.333 94 151.333C92.5272 151.333 91.3333 152.527 91.3333 154C91.3333 155.473 92.5272 156.667 94 156.667C95.4728 156.667 96.6667 155.473 96.6667 154ZM223.667 154C223.667 152.527 222.473 151.333 221 151.333C219.527 151.333 218.333 152.527 218.333 154C218.333 155.473 219.527 156.667 221 156.667C222.473 156.667 223.667 155.473 223.667 154ZM94 154V154.5L221 154.5V154V153.5L94 153.5V154Z" fill="#4C85EF"/>
<path d="M5.66666 125C5.66666 123.527 4.47276 122.333 3 122.333C1.52724 122.333 0.333328 123.527 0.333328 125C0.333328 126.473 1.52724 127.667 3 127.667C4.47276 127.667 5.66666 126.473 5.66666 125ZM117.667 125C117.667 123.527 116.473 122.333 115 122.333C113.527 122.333 112.333 123.527 112.333 125C112.333 126.473 113.527 127.667 115 127.667C116.473 127.667 117.667 126.473 117.667 125ZM3 125V125.5L115 125.5V125V124.5L3 124.5V125Z" fill="#E223B0"/>
<path d="M92.6682 245C92.6682 243.527 91.4743 242.333 90.0016 242.333C88.5288 242.333 87.3349 243.527 87.3349 245C87.3349 246.473 88.5288 247.667 90.0016 247.667C91.4743 247.667 92.6682 246.473 92.6682 245ZM329.667 245C329.667 243.527 328.473 242.333 327 242.333C325.527 242.333 324.333 243.527 324.333 245C324.333 246.473 325.527 247.667 327 247.667C328.473 247.667 329.667 246.473 329.667 245ZM90.0016 245V245.5L327 245.5V245V244.5L90.0016 244.5V245Z" fill="#7E9052"/>
<path d="M123.667 3C123.667 1.52724 122.473 0.333333 121 0.333333C119.527 0.333333 118.333 1.52724 118.333 3C118.333 4.47276 119.527 5.66667 121 5.66667C122.473 5.66667 123.667 4.47276 123.667 3ZM307.667 3C307.667 1.52724 306.473 0.333333 305 0.333333C303.527 0.333333 302.333 1.52724 302.333 3C302.333 4.47276 303.527 5.66667 305 5.66667C306.473 5.66667 307.667 4.47276 307.667 3ZM121 3V3.5L305 3.5V3V2.5L121 2.5V3Z" fill="#4C85EF"/>
<path d="M141.724 8.54545H144.886V19.9489C144.886 21.1989 144.591 22.2983 144 23.2472C143.415 24.196 142.591 24.9375 141.528 25.4716C140.466 26 139.224 26.2642 137.804 26.2642C136.378 26.2642 135.134 26 134.071 25.4716C133.009 24.9375 132.185 24.196 131.599 23.2472C131.014 22.2983 130.722 21.1989 130.722 19.9489V8.54545H133.884V19.6847C133.884 20.4119 134.043 21.0597 134.361 21.6278C134.685 22.196 135.139 22.642 135.724 22.9659C136.31 23.2841 137.003 23.4432 137.804 23.4432C138.605 23.4432 139.298 23.2841 139.884 22.9659C140.474 22.642 140.929 22.196 141.247 21.6278C141.565 21.0597 141.724 20.4119 141.724 19.6847V8.54545ZM150.765 8.54545V26H147.603V8.54545H150.765ZM160.458 7.72727L154.833 28.625H152.131L157.756 7.72727H160.458ZM172.846 8.54545H176.008V19.9489C176.008 21.1989 175.712 22.2983 175.121 23.2472C174.536 24.196 173.712 24.9375 172.65 25.4716C171.587 26 170.346 26.2642 168.925 26.2642C167.499 26.2642 166.255 26 165.192 25.4716C164.13 24.9375 163.306 24.196 162.721 23.2472C162.135 22.2983 161.843 21.1989 161.843 19.9489V8.54545H165.005V19.6847C165.005 20.4119 165.164 21.0597 165.482 21.6278C165.806 22.196 166.26 22.642 166.846 22.9659C167.431 23.2841 168.124 23.4432 168.925 23.4432C169.726 23.4432 170.42 23.2841 171.005 22.9659C171.596 22.642 172.05 22.196 172.368 21.6278C172.687 21.0597 172.846 20.4119 172.846 19.6847V8.54545ZM181.366 8.54545L185.21 14.9375H185.347L189.207 8.54545H192.812L187.435 17.2727L192.898 26H189.233L185.347 19.6506H185.21L181.324 26H177.676L183.19 17.2727L177.744 8.54545H181.366ZM205.723 26H199.808V8.54545H205.842C207.575 8.54545 209.064 8.89489 210.308 9.59375C211.558 10.2869 212.518 11.2841 213.189 12.5852C213.859 13.8864 214.194 15.4432 214.194 17.2557C214.194 19.0739 213.856 20.6364 213.18 21.9432C212.51 23.25 211.541 24.2528 210.274 24.9517C209.012 25.6506 207.495 26 205.723 26ZM202.97 23.2642H205.569C206.785 23.2642 207.799 23.0426 208.612 22.5994C209.424 22.1506 210.035 21.483 210.444 20.5966C210.853 19.7045 211.058 18.5909 211.058 17.2557C211.058 15.9205 210.853 14.8125 210.444 13.9318C210.035 13.0455 209.43 12.3835 208.629 11.946C207.833 11.5028 206.845 11.2812 205.663 11.2812H202.97V23.2642ZM222.138 26.2557C220.825 26.2557 219.692 25.983 218.737 25.4375C217.788 24.8864 217.058 24.108 216.547 23.1023C216.035 22.0909 215.78 20.9006 215.78 19.5312C215.78 18.1847 216.035 17.0028 216.547 15.9858C217.064 14.9631 217.785 14.1676 218.711 13.5994C219.638 13.0256 220.726 12.7386 221.976 12.7386C222.782 12.7386 223.544 12.8693 224.26 13.1307C224.981 13.3864 225.618 13.7841 226.169 14.3239C226.726 14.8636 227.163 15.5511 227.481 16.3864C227.799 17.2159 227.959 18.2045 227.959 19.3523V20.2983H217.228V18.2188H225.001C224.996 17.6278 224.868 17.1023 224.618 16.642C224.368 16.1761 224.018 15.8097 223.569 15.5426C223.126 15.2756 222.609 15.142 222.018 15.142C221.388 15.142 220.834 15.2955 220.356 15.6023C219.879 15.9034 219.507 16.3011 219.24 16.7955C218.978 17.2841 218.845 17.821 218.839 18.4062V20.2216C218.839 20.983 218.978 21.6364 219.257 22.1818C219.535 22.7216 219.924 23.1364 220.424 23.4261C220.924 23.7102 221.51 23.8523 222.18 23.8523C222.629 23.8523 223.035 23.7898 223.399 23.6648C223.763 23.5341 224.078 23.3438 224.345 23.0938C224.612 22.8438 224.814 22.5341 224.95 22.1648L227.831 22.4886C227.649 23.25 227.302 23.9148 226.791 24.483C226.285 25.0455 225.638 25.483 224.848 25.7955C224.058 26.1023 223.155 26.2557 222.138 26.2557ZM240.195 16.3693L237.383 16.6761C237.303 16.392 237.164 16.125 236.965 15.875C236.772 15.625 236.511 15.4233 236.181 15.2699C235.852 15.1165 235.448 15.0398 234.971 15.0398C234.329 15.0398 233.789 15.179 233.352 15.4574C232.92 15.7358 232.707 16.0966 232.712 16.5398C232.707 16.9205 232.846 17.2301 233.13 17.4688C233.42 17.7074 233.897 17.9034 234.562 18.0568L236.795 18.5341C238.033 18.8011 238.954 19.2244 239.556 19.804C240.164 20.3835 240.471 21.142 240.477 22.0795C240.471 22.9034 240.229 23.6307 239.752 24.2614C239.28 24.8864 238.624 25.375 237.783 25.7273C236.942 26.0795 235.977 26.2557 234.886 26.2557C233.283 26.2557 231.994 25.9205 231.016 25.25C230.039 24.5739 229.457 23.6335 229.269 22.429L232.278 22.1392C232.414 22.7301 232.704 23.1761 233.147 23.4773C233.59 23.7784 234.167 23.929 234.877 23.929C235.61 23.929 236.198 23.7784 236.641 23.4773C237.09 23.1761 237.315 22.804 237.315 22.3608C237.315 21.9858 237.17 21.6761 236.88 21.4318C236.596 21.1875 236.153 21 235.55 20.8693L233.317 20.4006C232.062 20.1392 231.133 19.6989 230.53 19.0795C229.928 18.4545 229.63 17.6648 229.636 16.7102C229.63 15.9034 229.849 15.2045 230.292 14.6136C230.741 14.017 231.363 13.5568 232.158 13.233C232.959 12.9034 233.883 12.7386 234.928 12.7386C236.462 12.7386 237.67 13.0653 238.55 13.7188C239.437 14.3722 239.985 15.2557 240.195 16.3693ZM242.301 26V12.9091H245.386V26H242.301ZM243.852 11.0511C243.363 11.0511 242.943 10.8892 242.59 10.5653C242.238 10.2358 242.062 9.84091 242.062 9.38068C242.062 8.91477 242.238 8.51989 242.59 8.19602C242.943 7.86648 243.363 7.7017 243.852 7.7017C244.346 7.7017 244.766 7.86648 245.113 8.19602C245.465 8.51989 245.641 8.91477 245.641 9.38068C245.641 9.84091 245.465 10.2358 245.113 10.5653C244.766 10.8892 244.346 11.0511 243.852 11.0511ZM253.532 31.1818C252.424 31.1818 251.472 31.0313 250.676 30.7301C249.881 30.4347 249.242 30.0369 248.759 29.5369C248.276 29.0369 247.941 28.483 247.753 27.875L250.532 27.2017C250.657 27.4574 250.838 27.7102 251.077 27.9602C251.316 28.2159 251.637 28.4261 252.04 28.5909C252.449 28.7614 252.963 28.8466 253.583 28.8466C254.458 28.8466 255.182 28.6335 255.756 28.2074C256.33 27.7869 256.617 27.0938 256.617 26.1278V23.6477H256.463C256.304 23.9659 256.071 24.2926 255.764 24.6278C255.463 24.9631 255.063 25.2443 254.563 25.4716C254.068 25.6989 253.446 25.8125 252.696 25.8125C251.691 25.8125 250.779 25.5767 249.961 25.1051C249.148 24.6278 248.5 23.9176 248.017 22.9744C247.54 22.0256 247.301 20.8381 247.301 19.4119C247.301 17.9744 247.54 16.7614 248.017 15.7727C248.5 14.7784 249.151 14.0256 249.969 13.5142C250.787 12.9972 251.699 12.7386 252.705 12.7386C253.472 12.7386 254.103 12.8693 254.597 13.1307C255.097 13.3864 255.495 13.696 255.79 14.0597C256.086 14.4176 256.31 14.7557 256.463 15.0739H256.634V12.9091H259.676V26.2131C259.676 27.3324 259.409 28.2585 258.875 28.9915C258.341 29.7244 257.611 30.2727 256.685 30.6364C255.759 31 254.708 31.1818 253.532 31.1818ZM253.557 23.392C254.211 23.392 254.767 23.233 255.228 22.9148C255.688 22.5966 256.037 22.1392 256.276 21.5426C256.514 20.946 256.634 20.2301 256.634 19.3949C256.634 18.571 256.514 17.8494 256.276 17.2301C256.043 16.6108 255.696 16.1307 255.236 15.7898C254.782 15.4432 254.222 15.2699 253.557 15.2699C252.87 15.2699 252.296 15.4489 251.836 15.8068C251.375 16.1648 251.029 16.6562 250.796 17.2812C250.563 17.9006 250.446 18.6051 250.446 19.3949C250.446 20.196 250.563 20.8977 250.796 21.5C251.034 22.0966 251.384 22.5625 251.844 22.8977C252.31 23.2273 252.881 23.392 253.557 23.392ZM265.204 18.3295V26H262.118V12.9091H265.067V15.1335H265.221C265.522 14.4006 266.002 13.8182 266.661 13.3864C267.326 12.9545 268.147 12.7386 269.124 12.7386C270.027 12.7386 270.814 12.9318 271.485 13.3182C272.161 13.7045 272.684 14.2642 273.053 14.9972C273.428 15.7301 273.613 16.6193 273.607 17.6648V26H270.522V18.142C270.522 17.267 270.294 16.5824 269.84 16.0881C269.391 15.5937 268.769 15.3466 267.973 15.3466C267.434 15.3466 266.954 15.4659 266.533 15.7045C266.118 15.9375 265.792 16.2756 265.553 16.7188C265.32 17.1619 265.204 17.6989 265.204 18.3295ZM281.819 26.2557C280.506 26.2557 279.373 25.983 278.418 25.4375C277.469 24.8864 276.739 24.108 276.228 23.1023C275.717 22.0909 275.461 20.9006 275.461 19.5312C275.461 18.1847 275.717 17.0028 276.228 15.9858C276.745 14.9631 277.467 14.1676 278.393 13.5994C279.319 13.0256 280.407 12.7386 281.657 12.7386C282.464 12.7386 283.225 12.8693 283.941 13.1307C284.663 13.3864 285.299 13.7841 285.85 14.3239C286.407 14.8636 286.844 15.5511 287.163 16.3864C287.481 17.2159 287.64 18.2045 287.64 19.3523V20.2983H276.91V18.2188H284.682C284.677 17.6278 284.549 17.1023 284.299 16.642C284.049 16.1761 283.699 15.8097 283.251 15.5426C282.807 15.2756 282.29 15.142 281.699 15.142C281.069 15.142 280.515 15.2955 280.038 15.6023C279.56 15.9034 279.188 16.3011 278.921 16.7955C278.66 17.2841 278.526 17.821 278.521 18.4062V20.2216C278.521 20.983 278.66 21.6364 278.938 22.1818C279.217 22.7216 279.606 23.1364 280.106 23.4261C280.606 23.7102 281.191 23.8523 281.861 23.8523C282.31 23.8523 282.717 23.7898 283.08 23.6648C283.444 23.5341 283.759 23.3438 284.026 23.0938C284.293 22.8438 284.495 22.5341 284.631 22.1648L287.512 22.4886C287.33 23.25 286.984 23.9148 286.472 24.483C285.967 25.0455 285.319 25.483 284.529 25.7955C283.739 26.1023 282.836 26.2557 281.819 26.2557ZM289.53 26V12.9091H292.521V15.0909H292.658C292.896 14.3352 293.305 13.7528 293.885 13.3438C294.47 12.929 295.138 12.7216 295.888 12.7216C296.058 12.7216 296.249 12.7301 296.459 12.7472C296.675 12.7585 296.854 12.7784 296.996 12.8068V15.6449C296.865 15.5994 296.658 15.5597 296.374 15.5256C296.095 15.4858 295.825 15.4659 295.564 15.4659C295.002 15.4659 294.496 15.5881 294.047 15.8324C293.604 16.071 293.254 16.4034 292.999 16.8295C292.743 17.2557 292.615 17.7472 292.615 18.304V26H289.53Z" fill="black"/>
<path d="M12.7216 148V130.545H19.4034C20.6648 130.545 21.7131 130.744 22.5483 131.142C23.3892 131.534 24.017 132.071 24.4318 132.753C24.8523 133.435 25.0625 134.207 25.0625 135.071C25.0625 135.781 24.9261 136.389 24.6534 136.895C24.3807 137.395 24.0142 137.801 23.554 138.114C23.0938 138.426 22.5795 138.651 22.0114 138.787V138.957C22.6307 138.991 23.2244 139.182 23.7926 139.528C24.3665 139.869 24.8352 140.352 25.1989 140.977C25.5625 141.602 25.7443 142.358 25.7443 143.244C25.7443 144.148 25.5256 144.96 25.0881 145.682C24.6506 146.398 23.9915 146.963 23.1108 147.378C22.2301 147.793 21.1222 148 19.7869 148H12.7216ZM15.8835 145.358H19.2841C20.4318 145.358 21.2585 145.139 21.7642 144.702C22.2756 144.259 22.5312 143.69 22.5312 142.997C22.5312 142.48 22.4034 142.014 22.1477 141.599C21.892 141.179 21.5284 140.849 21.0568 140.611C20.5852 140.366 20.0227 140.244 19.3693 140.244H15.8835V145.358ZM15.8835 137.969H19.0114C19.5568 137.969 20.0483 137.869 20.4858 137.67C20.9233 137.466 21.267 137.179 21.517 136.81C21.7727 136.435 21.9006 135.991 21.9006 135.48C21.9006 134.804 21.6619 134.247 21.1847 133.81C20.7131 133.372 20.0114 133.153 19.0795 133.153H15.8835V137.969ZM31.4057 148.264C30.5762 148.264 29.829 148.116 29.1642 147.821C28.5051 147.52 27.9824 147.077 27.5961 146.491C27.2154 145.906 27.025 145.185 27.025 144.327C27.025 143.588 27.1614 142.977 27.4341 142.494C27.7068 142.011 28.079 141.625 28.5506 141.335C29.0222 141.045 29.5534 140.827 30.1443 140.679C30.7409 140.526 31.3574 140.415 31.9938 140.347C32.7608 140.267 33.383 140.196 33.8603 140.134C34.3375 140.065 34.6841 139.963 34.9 139.827C35.1216 139.685 35.2324 139.466 35.2324 139.17V139.119C35.2324 138.477 35.0421 137.98 34.6614 137.628C34.2807 137.276 33.7324 137.099 33.0165 137.099C32.2608 137.099 31.6614 137.264 31.2182 137.594C30.7807 137.923 30.4853 138.312 30.3318 138.761L27.4512 138.352C27.6784 137.557 28.0534 136.892 28.5762 136.358C29.0989 135.818 29.7381 135.415 30.4938 135.148C31.2495 134.875 32.0847 134.739 32.9995 134.739C33.6301 134.739 34.258 134.812 34.883 134.96C35.508 135.108 36.079 135.352 36.5961 135.693C37.1131 136.028 37.5279 136.486 37.8404 137.065C38.1586 137.645 38.3176 138.369 38.3176 139.239V148H35.3517V146.202H35.2495C35.062 146.565 34.7978 146.906 34.4568 147.224C34.1216 147.537 33.6983 147.79 33.187 147.983C32.6813 148.17 32.0875 148.264 31.4057 148.264ZM32.2068 145.997C32.8262 145.997 33.3631 145.875 33.8176 145.631C34.2722 145.381 34.6216 145.051 34.8659 144.642C35.1159 144.233 35.2409 143.787 35.2409 143.304V141.761C35.1443 141.841 34.9796 141.915 34.7466 141.983C34.5193 142.051 34.2637 142.111 33.9796 142.162C33.6955 142.213 33.4142 142.259 33.1358 142.298C32.8574 142.338 32.6159 142.372 32.4114 142.401C31.9512 142.463 31.5392 142.565 31.1756 142.707C30.812 142.849 30.525 143.048 30.3148 143.304C30.1046 143.554 29.9995 143.878 29.9995 144.276C29.9995 144.844 30.2068 145.273 30.6216 145.562C31.0364 145.852 31.5648 145.997 32.2068 145.997ZM46.4101 148.256C45.1033 148.256 43.9812 147.969 43.0437 147.395C42.1118 146.821 41.3931 146.028 40.8874 145.017C40.3874 144 40.1374 142.83 40.1374 141.506C40.1374 140.176 40.3931 139.003 40.9045 137.986C41.4158 136.963 42.1374 136.168 43.0692 135.599C44.0067 135.026 45.1147 134.739 46.3931 134.739C47.4556 134.739 48.3959 134.935 49.2141 135.327C50.038 135.713 50.6942 136.261 51.1829 136.972C51.6715 137.676 51.9499 138.5 52.0181 139.443H49.0692C48.9499 138.812 48.6658 138.287 48.217 137.866C47.7738 137.44 47.18 137.227 46.4357 137.227C45.805 137.227 45.2511 137.398 44.7738 137.739C44.2965 138.074 43.9243 138.557 43.6573 139.188C43.3959 139.818 43.2653 140.574 43.2653 141.455C43.2653 142.347 43.3959 143.114 43.6573 143.756C43.9187 144.392 44.2851 144.884 44.7567 145.23C45.234 145.571 45.7937 145.741 46.4357 145.741C46.8903 145.741 47.2965 145.656 47.6545 145.486C48.0181 145.31 48.3221 145.057 48.5664 144.727C48.8107 144.398 48.9783 143.997 49.0692 143.526H52.0181C51.9442 144.452 51.6715 145.273 51.1999 145.989C50.7283 146.699 50.0863 147.256 49.2738 147.659C48.4613 148.057 47.5067 148.256 46.4101 148.256ZM56.644 143.892L56.6355 140.168H57.1298L61.8343 134.909H65.4394L59.6525 141.352H59.0133L56.644 143.892ZM53.8315 148V130.545H56.9167V148H53.8315ZM62.0474 148L57.786 142.043L59.8656 139.869L65.7377 148H62.0474ZM72.0319 148.256C70.7194 148.256 69.5859 147.983 68.6314 147.438C67.6825 146.886 66.9524 146.108 66.441 145.102C65.9297 144.091 65.674 142.901 65.674 141.531C65.674 140.185 65.9297 139.003 66.441 137.986C66.9581 136.963 67.6797 136.168 68.6058 135.599C69.5319 135.026 70.62 134.739 71.87 134.739C72.6768 134.739 73.4382 134.869 74.1541 135.131C74.8757 135.386 75.512 135.784 76.0632 136.324C76.62 136.864 77.0575 137.551 77.3757 138.386C77.6939 139.216 77.853 140.205 77.853 141.352V142.298H67.1228V140.219H74.8956C74.8899 139.628 74.762 139.102 74.512 138.642C74.262 138.176 73.9126 137.81 73.4637 137.543C73.0206 137.276 72.5035 137.142 71.9126 137.142C71.2819 137.142 70.728 137.295 70.2507 137.602C69.7734 137.903 69.4012 138.301 69.1342 138.795C68.8728 139.284 68.7393 139.821 68.7336 140.406V142.222C68.7336 142.983 68.8728 143.636 69.1512 144.182C69.4297 144.722 69.8189 145.136 70.3189 145.426C70.8189 145.71 71.4041 145.852 72.0745 145.852C72.5234 145.852 72.9297 145.79 73.2933 145.665C73.6569 145.534 73.9723 145.344 74.2393 145.094C74.5064 144.844 74.7081 144.534 74.8444 144.165L77.7251 144.489C77.5433 145.25 77.1967 145.915 76.6853 146.483C76.1797 147.045 75.5319 147.483 74.7422 147.795C73.9524 148.102 73.049 148.256 72.0319 148.256ZM82.8283 140.33V148H79.743V134.909H82.6919V137.134H82.8453C83.1465 136.401 83.6266 135.818 84.2857 135.386C84.9504 134.955 85.7715 134.739 86.7487 134.739C87.6521 134.739 88.4391 134.932 89.1095 135.318C89.7857 135.705 90.3084 136.264 90.6777 136.997C91.0527 137.73 91.2374 138.619 91.2317 139.665V148H88.1465V140.142C88.1465 139.267 87.9192 138.582 87.4646 138.088C87.0158 137.594 86.3936 137.347 85.5982 137.347C85.0584 137.347 84.5783 137.466 84.1578 137.705C83.743 137.937 83.4163 138.276 83.1777 138.719C82.9447 139.162 82.8283 139.699 82.8283 140.33ZM98.506 148.23C97.4776 148.23 96.5571 147.966 95.7446 147.438C94.9321 146.909 94.2901 146.142 93.8185 145.136C93.3469 144.131 93.1111 142.909 93.1111 141.472C93.1111 140.017 93.3497 138.79 93.827 137.79C94.31 136.784 94.9605 136.026 95.7787 135.514C96.5969 134.997 97.5088 134.739 98.5145 134.739C99.2816 134.739 99.9122 134.869 100.407 135.131C100.901 135.386 101.293 135.696 101.583 136.06C101.872 136.418 102.097 136.756 102.256 137.074H102.384V130.545H105.478V148H102.443V145.938H102.256C102.097 146.256 101.867 146.594 101.566 146.952C101.265 147.304 100.867 147.605 100.372 147.855C99.8782 148.105 99.256 148.23 98.506 148.23ZM99.3668 145.699C100.02 145.699 100.577 145.523 101.037 145.17C101.497 144.812 101.847 144.315 102.086 143.679C102.324 143.043 102.443 142.301 102.443 141.455C102.443 140.608 102.324 139.872 102.086 139.247C101.853 138.622 101.506 138.136 101.046 137.79C100.591 137.443 100.032 137.27 99.3668 137.27C98.6793 137.27 98.1054 137.449 97.6452 137.807C97.185 138.165 96.8384 138.659 96.6054 139.29C96.3725 139.92 96.256 140.642 96.256 141.455C96.256 142.273 96.3725 143.003 96.6054 143.645C96.8441 144.281 97.1935 144.784 97.6537 145.153C98.1196 145.517 98.6907 145.699 99.3668 145.699Z" fill="black"/>
<path d="M109.636 177H103.722V159.545H109.756C111.489 159.545 112.977 159.895 114.222 160.594C115.472 161.287 116.432 162.284 117.102 163.585C117.773 164.886 118.108 166.443 118.108 168.256C118.108 170.074 117.77 171.636 117.094 172.943C116.423 174.25 115.455 175.253 114.188 175.952C112.926 176.651 111.409 177 109.636 177ZM106.884 174.264H109.483C110.699 174.264 111.713 174.043 112.526 173.599C113.338 173.151 113.949 172.483 114.358 171.597C114.767 170.705 114.972 169.591 114.972 168.256C114.972 166.92 114.767 165.812 114.358 164.932C113.949 164.045 113.344 163.384 112.543 162.946C111.747 162.503 110.759 162.281 109.577 162.281H106.884V174.264ZM126.051 177.256C124.739 177.256 123.605 176.983 122.651 176.438C121.702 175.886 120.972 175.108 120.46 174.102C119.949 173.091 119.693 171.901 119.693 170.531C119.693 169.185 119.949 168.003 120.46 166.986C120.977 165.963 121.699 165.168 122.625 164.599C123.551 164.026 124.639 163.739 125.889 163.739C126.696 163.739 127.458 163.869 128.173 164.131C128.895 164.386 129.531 164.784 130.083 165.324C130.639 165.864 131.077 166.551 131.395 167.386C131.713 168.216 131.872 169.205 131.872 170.352V171.298H121.142V169.219H128.915C128.909 168.628 128.781 168.102 128.531 167.642C128.281 167.176 127.932 166.81 127.483 166.543C127.04 166.276 126.523 166.142 125.932 166.142C125.301 166.142 124.747 166.295 124.27 166.602C123.793 166.903 123.421 167.301 123.154 167.795C122.892 168.284 122.759 168.821 122.753 169.406V171.222C122.753 171.983 122.892 172.636 123.171 173.182C123.449 173.722 123.838 174.136 124.338 174.426C124.838 174.71 125.423 174.852 126.094 174.852C126.543 174.852 126.949 174.79 127.313 174.665C127.676 174.534 127.992 174.344 128.259 174.094C128.526 173.844 128.727 173.534 128.864 173.165L131.744 173.489C131.563 174.25 131.216 174.915 130.705 175.483C130.199 176.045 129.551 176.483 128.762 176.795C127.972 177.102 127.068 177.256 126.051 177.256ZM145.081 163.909L140.419 177H137.01L132.348 163.909H135.637L138.646 173.634H138.782L141.799 163.909H145.081ZM151.846 177.256C150.533 177.256 149.4 176.983 148.445 176.438C147.496 175.886 146.766 175.108 146.255 174.102C145.743 173.091 145.488 171.901 145.488 170.531C145.488 169.185 145.743 168.003 146.255 166.986C146.772 165.963 147.493 165.168 148.42 164.599C149.346 164.026 150.434 163.739 151.684 163.739C152.491 163.739 153.252 163.869 153.968 164.131C154.689 164.386 155.326 164.784 155.877 165.324C156.434 165.864 156.871 166.551 157.189 167.386C157.508 168.216 157.667 169.205 157.667 170.352V171.298H146.937V169.219H154.709C154.704 168.628 154.576 168.102 154.326 167.642C154.076 167.176 153.726 166.81 153.278 166.543C152.834 166.276 152.317 166.142 151.726 166.142C151.096 166.142 150.542 166.295 150.064 166.602C149.587 166.903 149.215 167.301 148.948 167.795C148.687 168.284 148.553 168.821 148.547 169.406V171.222C148.547 171.983 148.687 172.636 148.965 173.182C149.243 173.722 149.633 174.136 150.133 174.426C150.633 174.71 151.218 174.852 151.888 174.852C152.337 174.852 152.743 174.79 153.107 174.665C153.471 174.534 153.786 174.344 154.053 174.094C154.32 173.844 154.522 173.534 154.658 173.165L157.539 173.489C157.357 174.25 157.01 174.915 156.499 175.483C155.993 176.045 155.346 176.483 154.556 176.795C153.766 177.102 152.863 177.256 151.846 177.256ZM162.642 159.545V177H159.557V159.545H162.642ZM170.805 177.256C169.526 177.256 168.418 176.974 167.481 176.412C166.543 175.849 165.816 175.062 165.299 174.051C164.788 173.04 164.532 171.858 164.532 170.506C164.532 169.153 164.788 167.969 165.299 166.952C165.816 165.935 166.543 165.145 167.481 164.582C168.418 164.02 169.526 163.739 170.805 163.739C172.083 163.739 173.191 164.02 174.129 164.582C175.066 165.145 175.791 165.935 176.302 166.952C176.819 167.969 177.078 169.153 177.078 170.506C177.078 171.858 176.819 173.04 176.302 174.051C175.791 175.062 175.066 175.849 174.129 176.412C173.191 176.974 172.083 177.256 170.805 177.256ZM170.822 174.784C171.515 174.784 172.095 174.594 172.561 174.213C173.026 173.827 173.373 173.31 173.6 172.662C173.833 172.014 173.95 171.293 173.95 170.497C173.95 169.696 173.833 168.972 173.6 168.324C173.373 167.67 173.026 167.151 172.561 166.764C172.095 166.378 171.515 166.185 170.822 166.185C170.112 166.185 169.521 166.378 169.049 166.764C168.583 167.151 168.234 167.67 168.001 168.324C167.774 168.972 167.66 169.696 167.66 170.497C167.66 171.293 167.774 172.014 168.001 172.662C168.234 173.31 168.583 173.827 169.049 174.213C169.521 174.594 170.112 174.784 170.822 174.784ZM178.976 181.909V163.909H182.01V166.074H182.189C182.348 165.756 182.573 165.418 182.863 165.06C183.152 164.696 183.544 164.386 184.039 164.131C184.533 163.869 185.164 163.739 185.931 163.739C186.942 163.739 187.854 163.997 188.667 164.514C189.485 165.026 190.132 165.784 190.61 166.79C191.093 167.79 191.334 169.017 191.334 170.472C191.334 171.909 191.098 173.131 190.627 174.136C190.155 175.142 189.513 175.909 188.701 176.438C187.888 176.966 186.968 177.23 185.939 177.23C185.189 177.23 184.567 177.105 184.073 176.855C183.578 176.605 183.181 176.304 182.88 175.952C182.584 175.594 182.354 175.256 182.189 174.938H182.061V181.909H178.976ZM182.002 170.455C182.002 171.301 182.121 172.043 182.36 172.679C182.604 173.315 182.953 173.812 183.408 174.17C183.868 174.523 184.425 174.699 185.078 174.699C185.76 174.699 186.331 174.517 186.792 174.153C187.252 173.784 187.598 173.281 187.831 172.645C188.07 172.003 188.189 171.273 188.189 170.455C188.189 169.642 188.073 168.92 187.84 168.29C187.607 167.659 187.26 167.165 186.8 166.807C186.34 166.449 185.766 166.27 185.078 166.27C184.419 166.27 183.86 166.443 183.399 166.79C182.939 167.136 182.59 167.622 182.351 168.247C182.118 168.872 182.002 169.608 182.002 170.455ZM199.052 177.256C197.739 177.256 196.606 176.983 195.651 176.438C194.702 175.886 193.972 175.108 193.461 174.102C192.949 173.091 192.694 171.901 192.694 170.531C192.694 169.185 192.949 168.003 193.461 166.986C193.978 165.963 194.699 165.168 195.625 164.599C196.552 164.026 197.64 163.739 198.89 163.739C199.697 163.739 200.458 163.869 201.174 164.131C201.895 164.386 202.532 164.784 203.083 165.324C203.64 165.864 204.077 166.551 204.395 167.386C204.714 168.216 204.873 169.205 204.873 170.352V171.298H194.143V169.219H201.915C201.91 168.628 201.782 168.102 201.532 167.642C201.282 167.176 200.932 166.81 200.483 166.543C200.04 166.276 199.523 166.142 198.932 166.142C198.302 166.142 197.748 166.295 197.27 166.602C196.793 166.903 196.421 167.301 196.154 167.795C195.893 168.284 195.759 168.821 195.753 169.406V171.222C195.753 171.983 195.893 172.636 196.171 173.182C196.449 173.722 196.839 174.136 197.339 174.426C197.839 174.71 198.424 174.852 199.094 174.852C199.543 174.852 199.949 174.79 200.313 174.665C200.677 174.534 200.992 174.344 201.259 174.094C201.526 173.844 201.728 173.534 201.864 173.165L204.745 173.489C204.563 174.25 204.216 174.915 203.705 175.483C203.199 176.045 202.552 176.483 201.762 176.795C200.972 177.102 200.069 177.256 199.052 177.256ZM206.763 177V163.909H209.754V166.091H209.891C210.129 165.335 210.538 164.753 211.118 164.344C211.703 163.929 212.371 163.722 213.121 163.722C213.291 163.722 213.481 163.73 213.692 163.747C213.908 163.759 214.087 163.778 214.229 163.807V166.645C214.098 166.599 213.891 166.56 213.606 166.526C213.328 166.486 213.058 166.466 212.797 166.466C212.234 166.466 211.729 166.588 211.28 166.832C210.837 167.071 210.487 167.403 210.231 167.83C209.976 168.256 209.848 168.747 209.848 169.304V177H206.763Z" fill="black"/>
<path d="M99.7216 268V250.545H110.903V253.196H102.884V257.935H110.136V260.585H102.884V268H99.7216ZM120.451 262.494V254.909H123.536V268H120.545V265.673H120.409C120.113 266.406 119.627 267.006 118.951 267.472C118.281 267.937 117.454 268.17 116.471 268.17C115.613 268.17 114.855 267.98 114.195 267.599C113.542 267.213 113.031 266.653 112.661 265.92C112.292 265.182 112.107 264.29 112.107 263.244V254.909H115.193V262.767C115.193 263.597 115.42 264.256 115.874 264.744C116.329 265.233 116.926 265.477 117.664 265.477C118.119 265.477 118.559 265.366 118.985 265.145C119.411 264.923 119.761 264.594 120.034 264.156C120.312 263.713 120.451 263.159 120.451 262.494ZM129.074 250.545V268H125.989V250.545H129.074ZM134.612 250.545V268H131.527V250.545H134.612ZM152.644 258.369L149.832 258.676C149.752 258.392 149.613 258.125 149.414 257.875C149.221 257.625 148.96 257.423 148.63 257.27C148.301 257.116 147.897 257.04 147.42 257.04C146.778 257.04 146.238 257.179 145.801 257.457C145.369 257.736 145.156 258.097 145.161 258.54C145.156 258.92 145.295 259.23 145.579 259.469C145.869 259.707 146.346 259.903 147.011 260.057L149.244 260.534C150.482 260.801 151.403 261.224 152.005 261.804C152.613 262.384 152.92 263.142 152.926 264.08C152.92 264.903 152.678 265.631 152.201 266.261C151.73 266.886 151.073 267.375 150.232 267.727C149.391 268.08 148.426 268.256 147.335 268.256C145.732 268.256 144.443 267.92 143.465 267.25C142.488 266.574 141.906 265.634 141.718 264.429L144.727 264.139C144.863 264.73 145.153 265.176 145.596 265.477C146.039 265.778 146.616 265.929 147.326 265.929C148.059 265.929 148.647 265.778 149.09 265.477C149.539 265.176 149.764 264.804 149.764 264.361C149.764 263.986 149.619 263.676 149.329 263.432C149.045 263.187 148.602 263 147.999 262.869L145.766 262.401C144.511 262.139 143.582 261.699 142.98 261.08C142.377 260.455 142.079 259.665 142.085 258.71C142.079 257.903 142.298 257.205 142.741 256.614C143.19 256.017 143.812 255.557 144.607 255.233C145.409 254.903 146.332 254.739 147.377 254.739C148.911 254.739 150.119 255.065 150.999 255.719C151.886 256.372 152.434 257.256 152.644 258.369ZM161.287 254.909V257.295H153.761V254.909H161.287ZM155.619 251.773H158.704V264.062C158.704 264.477 158.767 264.795 158.892 265.017C159.022 265.233 159.193 265.381 159.403 265.46C159.613 265.54 159.846 265.58 160.102 265.58C160.295 265.58 160.471 265.565 160.63 265.537C160.795 265.509 160.92 265.483 161.005 265.46L161.525 267.872C161.36 267.929 161.125 267.991 160.818 268.06C160.517 268.128 160.147 268.168 159.71 268.179C158.937 268.202 158.241 268.085 157.622 267.83C157.002 267.568 156.511 267.165 156.147 266.619C155.789 266.074 155.613 265.392 155.619 264.574V251.773ZM166.914 268.264C166.084 268.264 165.337 268.116 164.672 267.821C164.013 267.52 163.491 267.077 163.104 266.491C162.723 265.906 162.533 265.185 162.533 264.327C162.533 263.588 162.67 262.977 162.942 262.494C163.215 262.011 163.587 261.625 164.059 261.335C164.53 261.045 165.062 260.827 165.652 260.679C166.249 260.526 166.866 260.415 167.502 260.347C168.269 260.267 168.891 260.196 169.368 260.134C169.846 260.065 170.192 259.963 170.408 259.827C170.63 259.685 170.741 259.466 170.741 259.17V259.119C170.741 258.477 170.55 257.98 170.17 257.628C169.789 257.276 169.241 257.099 168.525 257.099C167.769 257.099 167.17 257.264 166.726 257.594C166.289 257.923 165.993 258.312 165.84 258.761L162.959 258.352C163.187 257.557 163.562 256.892 164.084 256.358C164.607 255.818 165.246 255.415 166.002 255.148C166.758 254.875 167.593 254.739 168.508 254.739C169.138 254.739 169.766 254.812 170.391 254.96C171.016 255.108 171.587 255.352 172.104 255.693C172.621 256.028 173.036 256.486 173.348 257.065C173.667 257.645 173.826 258.369 173.826 259.239V268H170.86V266.202H170.758C170.57 266.565 170.306 266.906 169.965 267.224C169.63 267.537 169.206 267.79 168.695 267.983C168.189 268.17 167.596 268.264 166.914 268.264ZM167.715 265.997C168.334 265.997 168.871 265.875 169.326 265.631C169.78 265.381 170.13 265.051 170.374 264.642C170.624 264.233 170.749 263.787 170.749 263.304V261.761C170.652 261.841 170.488 261.915 170.255 261.983C170.027 262.051 169.772 262.111 169.488 262.162C169.204 262.213 168.922 262.259 168.644 262.298C168.366 262.338 168.124 262.372 167.92 262.401C167.459 262.463 167.047 262.565 166.684 262.707C166.32 262.849 166.033 263.048 165.823 263.304C165.613 263.554 165.508 263.878 165.508 264.276C165.508 264.844 165.715 265.273 166.13 265.562C166.545 265.852 167.073 265.997 167.715 265.997ZM181.918 268.256C180.611 268.256 179.489 267.969 178.552 267.395C177.62 266.821 176.901 266.028 176.396 265.017C175.896 264 175.646 262.83 175.646 261.506C175.646 260.176 175.901 259.003 176.413 257.986C176.924 256.963 177.646 256.168 178.577 255.599C179.515 255.026 180.623 254.739 181.901 254.739C182.964 254.739 183.904 254.935 184.722 255.327C185.546 255.713 186.202 256.261 186.691 256.972C187.18 257.676 187.458 258.5 187.526 259.443H184.577C184.458 258.812 184.174 258.287 183.725 257.866C183.282 257.44 182.688 257.227 181.944 257.227C181.313 257.227 180.759 257.398 180.282 257.739C179.805 258.074 179.432 258.557 179.165 259.188C178.904 259.818 178.773 260.574 178.773 261.455C178.773 262.347 178.904 263.114 179.165 263.756C179.427 264.392 179.793 264.884 180.265 265.23C180.742 265.571 181.302 265.741 181.944 265.741C182.398 265.741 182.805 265.656 183.163 265.486C183.526 265.31 183.83 265.057 184.075 264.727C184.319 264.398 184.486 263.997 184.577 263.526H187.526C187.452 264.452 187.18 265.273 186.708 265.989C186.236 266.699 185.594 267.256 184.782 267.659C183.969 268.057 183.015 268.256 181.918 268.256ZM192.152 263.892L192.144 260.168H192.638L197.342 254.909H200.948L195.161 261.352H194.521L192.152 263.892ZM189.34 268V250.545H192.425V268H189.34ZM197.556 268L193.294 262.043L195.374 259.869L201.246 268H197.556ZM213.568 268H207.653V250.545H213.687C215.42 250.545 216.909 250.895 218.153 251.594C219.403 252.287 220.363 253.284 221.034 254.585C221.704 255.886 222.04 257.443 222.04 259.256C222.04 261.074 221.701 262.636 221.025 263.943C220.355 265.25 219.386 266.253 218.119 266.952C216.858 267.651 215.341 268 213.568 268ZM210.815 265.264H213.415C214.63 265.264 215.645 265.043 216.457 264.599C217.27 264.151 217.88 263.483 218.29 262.597C218.699 261.705 218.903 260.591 218.903 259.256C218.903 257.92 218.699 256.812 218.29 255.932C217.88 255.045 217.275 254.384 216.474 253.946C215.679 253.503 214.69 253.281 213.508 253.281H210.815V265.264ZM229.983 268.256C228.67 268.256 227.537 267.983 226.582 267.438C225.633 266.886 224.903 266.108 224.392 265.102C223.881 264.091 223.625 262.901 223.625 261.531C223.625 260.185 223.881 259.003 224.392 257.986C224.909 256.963 225.631 256.168 226.557 255.599C227.483 255.026 228.571 254.739 229.821 254.739C230.628 254.739 231.389 254.869 232.105 255.131C232.827 255.386 233.463 255.784 234.014 256.324C234.571 256.864 235.008 257.551 235.327 258.386C235.645 259.216 235.804 260.205 235.804 261.352V262.298H225.074V260.219H232.847C232.841 259.628 232.713 259.102 232.463 258.642C232.213 258.176 231.864 257.81 231.415 257.543C230.972 257.276 230.454 257.142 229.864 257.142C229.233 257.142 228.679 257.295 228.202 257.602C227.724 257.903 227.352 258.301 227.085 258.795C226.824 259.284 226.69 259.821 226.685 260.406V262.222C226.685 262.983 226.824 263.636 227.102 264.182C227.381 264.722 227.77 265.136 228.27 265.426C228.77 265.71 229.355 265.852 230.025 265.852C230.474 265.852 230.881 265.79 231.244 265.665C231.608 265.534 231.923 265.344 232.19 265.094C232.457 264.844 232.659 264.534 232.795 264.165L235.676 264.489C235.494 265.25 235.148 265.915 234.636 266.483C234.131 267.045 233.483 267.483 232.693 267.795C231.903 268.102 231 268.256 229.983 268.256ZM249.012 254.909L244.35 268H240.941L236.279 254.909H239.569L242.577 264.634H242.714L245.731 254.909H249.012ZM255.777 268.256C254.465 268.256 253.331 267.983 252.377 267.438C251.428 266.886 250.698 266.108 250.186 265.102C249.675 264.091 249.419 262.901 249.419 261.531C249.419 260.185 249.675 259.003 250.186 257.986C250.703 256.963 251.425 256.168 252.351 255.599C253.277 255.026 254.365 254.739 255.615 254.739C256.422 254.739 257.183 254.869 257.899 255.131C258.621 255.386 259.257 255.784 259.808 256.324C260.365 256.864 260.803 257.551 261.121 258.386C261.439 259.216 261.598 260.205 261.598 261.352V262.298H250.868V260.219H258.641C258.635 259.628 258.507 259.102 258.257 258.642C258.007 258.176 257.658 257.81 257.209 257.543C256.766 257.276 256.249 257.142 255.658 257.142C255.027 257.142 254.473 257.295 253.996 257.602C253.519 257.903 253.147 258.301 252.88 258.795C252.618 259.284 252.485 259.821 252.479 260.406V262.222C252.479 262.983 252.618 263.636 252.897 264.182C253.175 264.722 253.564 265.136 254.064 265.426C254.564 265.71 255.149 265.852 255.82 265.852C256.269 265.852 256.675 265.79 257.039 265.665C257.402 265.534 257.718 265.344 257.985 265.094C258.252 264.844 258.453 264.534 258.59 264.165L261.47 264.489C261.289 265.25 260.942 265.915 260.431 266.483C259.925 267.045 259.277 267.483 258.487 267.795C257.698 268.102 256.794 268.256 255.777 268.256ZM266.574 250.545V268H263.488V250.545H266.574ZM274.736 268.256C273.458 268.256 272.35 267.974 271.413 267.412C270.475 266.849 269.748 266.062 269.231 265.051C268.719 264.04 268.464 262.858 268.464 261.506C268.464 260.153 268.719 258.969 269.231 257.952C269.748 256.935 270.475 256.145 271.413 255.582C272.35 255.02 273.458 254.739 274.736 254.739C276.015 254.739 277.123 255.02 278.06 255.582C278.998 256.145 279.722 256.935 280.234 257.952C280.751 258.969 281.009 260.153 281.009 261.506C281.009 262.858 280.751 264.04 280.234 265.051C279.722 266.062 278.998 266.849 278.06 267.412C277.123 267.974 276.015 268.256 274.736 268.256ZM274.753 265.784C275.447 265.784 276.026 265.594 276.492 265.213C276.958 264.827 277.305 264.31 277.532 263.662C277.765 263.014 277.881 262.293 277.881 261.497C277.881 260.696 277.765 259.972 277.532 259.324C277.305 258.67 276.958 258.151 276.492 257.764C276.026 257.378 275.447 257.185 274.753 257.185C274.043 257.185 273.452 257.378 272.981 257.764C272.515 258.151 272.165 258.67 271.932 259.324C271.705 259.972 271.592 260.696 271.592 261.497C271.592 262.293 271.705 263.014 271.932 263.662C272.165 264.31 272.515 264.827 272.981 265.213C273.452 265.594 274.043 265.784 274.753 265.784ZM282.908 272.909V254.909H285.942V257.074H286.121C286.28 256.756 286.504 256.418 286.794 256.06C287.084 255.696 287.476 255.386 287.97 255.131C288.465 254.869 289.095 254.739 289.862 254.739C290.874 254.739 291.786 254.997 292.598 255.514C293.416 256.026 294.064 256.784 294.541 257.79C295.024 258.79 295.266 260.017 295.266 261.472C295.266 262.909 295.03 264.131 294.558 265.136C294.087 266.142 293.445 266.909 292.632 267.438C291.82 267.966 290.899 268.23 289.871 268.23C289.121 268.23 288.499 268.105 288.004 267.855C287.51 267.605 287.112 267.304 286.811 266.952C286.516 266.594 286.286 266.256 286.121 265.938H285.993V272.909H282.908ZM285.933 261.455C285.933 262.301 286.053 263.043 286.291 263.679C286.536 264.315 286.885 264.812 287.34 265.17C287.8 265.523 288.357 265.699 289.01 265.699C289.692 265.699 290.263 265.517 290.723 265.153C291.183 264.784 291.53 264.281 291.763 263.645C292.001 263.003 292.121 262.273 292.121 261.455C292.121 260.642 292.004 259.92 291.771 259.29C291.538 258.659 291.192 258.165 290.732 257.807C290.271 257.449 289.697 257.27 289.01 257.27C288.351 257.27 287.791 257.443 287.331 257.79C286.871 258.136 286.521 258.622 286.283 259.247C286.05 259.872 285.933 260.608 285.933 261.455ZM302.983 268.256C301.671 268.256 300.537 267.983 299.583 267.438C298.634 266.886 297.904 266.108 297.392 265.102C296.881 264.091 296.625 262.901 296.625 261.531C296.625 260.185 296.881 259.003 297.392 257.986C297.909 256.963 298.631 256.168 299.557 255.599C300.483 255.026 301.571 254.739 302.821 254.739C303.628 254.739 304.389 254.869 305.105 255.131C305.827 255.386 306.463 255.784 307.014 256.324C307.571 256.864 308.009 257.551 308.327 258.386C308.645 259.216 308.804 260.205 308.804 261.352V262.298H298.074V260.219H305.847C305.841 259.628 305.713 259.102 305.463 258.642C305.213 258.176 304.864 257.81 304.415 257.543C303.972 257.276 303.455 257.142 302.864 257.142C302.233 257.142 301.679 257.295 301.202 257.602C300.725 257.903 300.352 258.301 300.085 258.795C299.824 259.284 299.691 259.821 299.685 260.406V262.222C299.685 262.983 299.824 263.636 300.102 264.182C300.381 264.722 300.77 265.136 301.27 265.426C301.77 265.71 302.355 265.852 303.026 265.852C303.475 265.852 303.881 265.79 304.245 265.665C304.608 265.534 304.924 265.344 305.191 265.094C305.458 264.844 305.659 264.534 305.796 264.165L308.676 264.489C308.495 265.25 308.148 265.915 307.637 266.483C307.131 267.045 306.483 267.483 305.693 267.795C304.904 268.102 304 268.256 302.983 268.256ZM310.694 268V254.909H313.686V257.091H313.822C314.061 256.335 314.47 255.753 315.049 255.344C315.635 254.929 316.302 254.722 317.052 254.722C317.223 254.722 317.413 254.73 317.623 254.747C317.839 254.759 318.018 254.778 318.16 254.807V257.645C318.03 257.599 317.822 257.56 317.538 257.526C317.26 257.486 316.99 257.466 316.728 257.466C316.166 257.466 315.66 257.588 315.211 257.832C314.768 258.071 314.419 258.403 314.163 258.83C313.907 259.256 313.78 259.747 313.78 260.304V268H310.694Z" fill="black"/>
<defs>
<filter id="filter0_d_26_2" x="1396" y="70" width="26" height="57" filterUnits="userSpaceOnUse" color-interpolation-filters="sRGB">
<feFlood flood-opacity="0" result="BackgroundImageFix"/>
<feColorMatrix in="SourceAlpha" type="matrix" values="0 0 0 0 0 0 0 0 0 0 0 0 0 0 0 0 0 0 127 0" result="hardAlpha"/>
<feOffset dy="4"/>
<feGaussianBlur stdDeviation="2"/>
<feComposite in2="hardAlpha" operator="out"/>
<feColorMatrix type="matrix" values="0 0 0 0 0 0 0 0 0 0 0 0 0 0 0 0 0 0 0.25 0"/>
<feBlend mode="normal" in2="BackgroundImageFix" result="effect1_dropShadow_26_2"/>
<feBlend mode="normal" in="SourceGraphic" in2="effect1_dropShadow_26_2" result="shape"/>
</filter>
<filter id="filter1_d_26_2" x="73" y="209" width="21" height="44" filterUnits="userSpaceOnUse" color-interpolation-filters="sRGB">
<feFlood flood-opacity="0" result="BackgroundImageFix"/>
<feColorMatrix in="SourceAlpha" type="matrix" values="0 0 0 0 0 0 0 0 0 0 0 0 0 0 0 0 0 0 127 0" result="hardAlpha"/>
<feOffset dy="4"/>
<feGaussianBlur stdDeviation="2"/>
<feComposite in2="hardAlpha" operator="out"/>
<feColorMatrix type="matrix" values="0 0 0 0 0 0 0 0 0 0 0 0 0 0 0 0 0 0 0.25 0"/>
<feBlend mode="normal" in2="BackgroundImageFix" result="effect1_dropShadow_26_2"/>
<feBlend mode="normal" in="SourceGraphic" in2="effect1_dropShadow_26_2" result="shape"/>
</filter>
<filter id="filter2_d_26_2" x="22" y="104" width="23" height="20" filterUnits="userSpaceOnUse" color-interpolation-filters="sRGB">
<feFlood flood-opacity="0" result="BackgroundImageFix"/>
<feColorMatrix in="SourceAlpha" type="matrix" values="0 0 0 0 0 0 0 0 0 0 0 0 0 0 0 0 0 0 127 0" result="hardAlpha"/>
<feOffset dy="4"/>
<feGaussianBlur stdDeviation="2"/>
<feComposite in2="hardAlpha" operator="out"/>
<feColorMatrix type="matrix" values="0 0 0 0 0 0 0 0 0 0 0 0 0 0 0 0 0 0 0.25 0"/>
<feBlend mode="normal" in2="BackgroundImageFix" result="effect1_dropShadow_26_2"/>
<feBlend mode="normal" in="SourceGraphic" in2="effect1_dropShadow_26_2" result="shape"/>
</filter>
<filter id="filter3_d_26_2" x="142" y="43" width="26" height="24" filterUnits="userSpaceOnUse" color-interpolation-filters="sRGB">
<feFlood flood-opacity="0" result="BackgroundImageFix"/>
<feColorMatrix in="SourceAlpha" type="matrix" values="0 0 0 0 0 0 0 0 0 0 0 0 0 0 0 0 0 0 127 0" result="hardAlpha"/>
<feOffset dy="4"/>
<feGaussianBlur stdDeviation="2"/>
<feComposite in2="hardAlpha" operator="out"/>
<feColorMatrix type="matrix" values="0 0 0 0 0 0 0 0 0 0 0 0 0 0 0 0 0 0 0.25 0"/>
<feBlend mode="normal" in2="BackgroundImageFix" result="effect1_dropShadow_26_2"/>
<feBlend mode="normal" in="SourceGraphic" in2="effect1_dropShadow_26_2" result="shape"/>
</filter>
</defs>
</svg>
