<svg width="20" height="20" viewBox="0 0 20 20" fill="none" xmlns="http://www.w3.org/2000/svg">
<g clip-path="url(#clip0_1266_12037)">
<path d="M20 10C20 4.4772 15.5228 0 10 0C4.4772 0 0 4.4772 0 10C0 14.6896 3.2288 18.6248 7.5844 19.7056V13.056H5.5224V10H7.5844V8.6832C7.5844 5.2796 9.1248 3.702 12.4664 3.702C13.1 3.702 14.1932 3.8264 14.6404 3.9504V6.7204C14.4044 6.6956 13.9944 6.6832 13.4852 6.6832C11.8456 6.6832 11.212 7.3044 11.212 8.9192V10H14.4784L13.9172 13.056H11.212V19.9268C16.1636 19.3288 20.0004 15.1128 20.0004 10H20Z" fill="black"/>
<path d="M13.9168 13.0571L14.478 10.0011H11.2116V8.92032C11.2116 7.30552 11.8452 6.68432 13.4848 6.68432C13.994 6.68432 14.404 6.69672 14.64 6.72152V3.95152C14.1928 3.82712 13.0996 3.70312 12.466 3.70312C9.12437 3.70312 7.58397 5.28073 7.58397 8.68432V10.0011H5.52197V13.0571H7.58397V19.7067C8.35757 19.8987 9.16677 20.0011 9.99957 20.0011C10.4096 20.0011 10.814 19.9759 11.2112 19.9279V13.0571H13.9164H13.9168Z" fill="white"/>
</g>
<defs>
<clipPath id="clip0_1266_12037">
<rect width="20" height="20" fill="white"/>
</clipPath>
</defs>
</svg>
